<svg width="100" height="100" viewBox="0 0 100 100" fill="none" xmlns="http://www.w3.org/2000/svg">
<g clip-path="url(#clip0_54_236)">
<path d="M6.17889 5.21971C6.17889 5.62158 6.50464 5.9473 6.90648 5.9473C7.30832 5.9473 7.63408 5.62158 7.63408 5.21971C7.63408 4.81783 7.30832 4.49211 6.90648 4.49211C6.50464 4.49211 6.17889 4.81783 6.17889 5.21971ZM6.09807 5.21971C6.09807 4.77321 6.46001 4.41127 6.90648 4.41127C7.35295 4.41127 7.71489 4.77321 7.71489 5.21971C7.71489 5.6662 7.35295 6.02814 6.90648 6.02814C6.46001 6.02814 6.09807 5.6662 6.09807 5.21971Z" fill="black"/>
<path d="M5.88789 14.9835C5.88789 15.546 6.34392 16.0021 6.90648 16.0021C7.46904 16.0021 7.92508 15.546 7.92508 14.9835C7.92508 14.4209 7.46904 13.9648 6.90648 13.9648C6.34392 13.9648 5.88789 14.4209 5.88789 14.9835ZM5.77469 14.9835C5.77469 14.3584 6.28141 13.8516 6.90648 13.8516C7.53156 13.8516 8.03828 14.3584 8.03828 14.9835C8.03828 15.6085 7.53156 16.1153 6.90648 16.1153C6.28141 16.1153 5.77469 15.6085 5.77469 14.9835Z" fill="black"/>
<path d="M5.5968 24.7472C5.5968 25.4705 6.18316 26.0569 6.90648 26.0569C7.6298 26.0569 8.21616 25.4705 8.21616 24.7472C8.21616 24.0239 7.6298 23.4375 6.90648 23.4375C6.18316 23.4375 5.5968 24.0239 5.5968 24.7472ZM5.4513 24.7472C5.4513 23.9436 6.10281 23.292 6.90648 23.292C7.71017 23.292 8.36166 23.9436 8.36166 24.7472C8.36166 25.5509 7.71017 26.2024 6.90648 26.2024C6.10281 26.2024 5.4513 25.5509 5.4513 24.7472Z" fill="black"/>
<path d="M5.30576 34.511C5.30576 35.395 6.02244 36.1117 6.90648 36.1117C7.79052 36.1117 8.5072 35.395 8.5072 34.511C8.5072 33.627 7.79052 32.9102 6.90648 32.9102C6.02244 32.9102 5.30576 33.627 5.30576 34.511ZM5.12795 34.511C5.12795 33.5286 5.9242 32.7324 6.90648 32.7324C7.88877 32.7324 8.68501 33.5286 8.68501 34.511C8.68501 35.4933 7.88877 36.2895 6.90648 36.2895C5.9242 36.2895 5.12795 35.4933 5.12795 34.511Z" fill="black"/>
<path d="M5.01475 44.2747C5.01475 45.3195 5.86168 46.1665 6.90648 46.1665C7.95128 46.1665 8.79821 45.3195 8.79821 44.2747C8.79821 43.23 7.95128 42.383 6.90648 42.383C5.86168 42.383 5.01475 43.23 5.01475 44.2747ZM4.80457 44.2747C4.80457 43.1138 5.74562 42.1728 6.90648 42.1728C8.06734 42.1728 9.00839 43.1138 9.00839 44.2747C9.00839 45.4356 8.06734 46.3767 6.90648 46.3767C5.74562 46.3767 4.80457 45.4356 4.80457 44.2747Z" fill="black"/>
<path d="M4.72371 54.0385C4.72371 55.244 5.70096 56.2213 6.90648 56.2213C8.112 56.2213 9.08926 55.244 9.08926 54.0385C9.08926 52.833 8.112 51.8557 6.90648 51.8557C5.70096 51.8557 4.72371 52.833 4.72371 54.0385ZM4.48118 54.0385C4.48118 52.699 5.56702 51.6132 6.90648 51.6132C8.24595 51.6132 9.33178 52.699 9.33178 54.0385C9.33178 55.378 8.24595 56.4638 6.90648 56.4638C5.56702 56.4638 4.48118 55.378 4.48118 54.0385Z" fill="black"/>
<path d="M4.43267 63.8022C4.43267 65.1685 5.5402 66.2761 6.90648 66.2761C8.27276 66.2761 9.3803 65.1685 9.3803 63.8022C9.3803 62.436 8.27276 61.3284 6.90648 61.3284C5.5402 61.3284 4.43267 62.436 4.43267 63.8022ZM4.15779 63.8022C4.15779 62.2842 5.38841 61.0536 6.90648 61.0536C8.42455 61.0536 9.65518 62.2842 9.65518 63.8022C9.65518 65.3203 8.42455 66.5509 6.90648 66.5509C5.38841 66.5509 4.15779 65.3203 4.15779 63.8022Z" fill="black"/>
<path d="M4.14162 73.566C4.14162 75.0931 5.37952 76.3308 6.90648 76.3308C8.43345 76.3308 9.67134 75.0931 9.67134 73.566C9.67134 72.0389 8.43345 70.8012 6.90648 70.8012C5.37952 70.8012 4.14162 72.0389 4.14162 73.566ZM3.8344 73.566C3.8344 71.8694 5.20983 70.4939 6.90648 70.4939C8.60313 70.4939 9.97856 71.8694 9.97856 73.566C9.97856 75.2626 8.60313 76.6381 6.90648 76.6381C5.20983 76.6381 3.8344 75.2626 3.8344 73.566Z" fill="black"/>
<path d="M3.85058 83.3298C3.85058 85.0174 5.21877 86.3857 6.90648 86.3857C8.5942 86.3857 9.96238 85.0174 9.96238 83.3298C9.96238 81.6421 8.5942 80.2738 6.90648 80.2738C5.21877 80.2738 3.85058 81.6421 3.85058 83.3298ZM3.51106 83.3298C3.51106 81.4545 5.03124 79.9343 6.90648 79.9343C8.78174 79.9343 10.3019 81.4545 10.3019 83.3298C10.3019 85.205 8.78174 86.7252 6.90648 86.7252C5.03124 86.7252 3.51106 85.205 3.51106 83.3298Z" fill="black"/>
<path d="M3.55953 93.0935C3.55953 94.942 5.05805 96.4404 6.90648 96.4404C8.75492 96.4404 10.2534 94.942 10.2534 93.0935C10.2534 91.245 8.75492 89.7466 6.90648 89.7466C5.05805 89.7466 3.55953 91.245 3.55953 93.0935ZM3.18767 93.0935C3.18767 91.0397 4.85263 89.3747 6.90648 89.3747C8.96034 89.3747 10.6253 91.0397 10.6253 93.0935C10.6253 95.1473 8.96034 96.8123 6.90648 96.8123C4.85263 96.8123 3.18767 95.1473 3.18767 93.0935Z" fill="black"/>
<path d="M16.0059 5.2197C16.0059 5.58662 16.3033 5.88403 16.6702 5.88403C17.0372 5.88403 17.3346 5.58662 17.3346 5.2197C17.3346 4.85278 17.0372 4.55537 16.6702 4.55537C16.3033 4.55537 16.0059 4.85278 16.0059 5.2197ZM15.9321 5.2197C15.9321 4.81206 16.2626 4.48156 16.6702 4.48156C17.0779 4.48156 17.4084 4.81206 17.4084 5.2197C17.4084 5.62734 17.0779 5.95784 16.6702 5.95784C16.2626 5.95784 15.9321 5.62734 15.9321 5.2197Z" fill="black"/>
<path d="M15.7402 14.9835C15.7402 15.4971 16.1566 15.9135 16.6702 15.9135C17.1839 15.9135 17.6002 15.4971 17.6002 14.9835C17.6002 14.4698 17.1839 14.0535 16.6702 14.0535C16.1566 14.0535 15.7402 14.4698 15.7402 14.9835ZM15.6368 14.9835C15.6368 14.4128 16.0995 13.9501 16.6702 13.9501C17.2409 13.9501 17.7036 14.4128 17.7036 14.9835C17.7036 15.5541 17.2409 16.0168 16.6702 16.0168C16.0995 16.0168 15.6368 15.5541 15.6368 14.9835Z" fill="black"/>
<path d="M15.4745 24.7472C15.4745 25.4076 16.0098 25.943 16.6702 25.943C17.3307 25.943 17.866 25.4076 17.866 24.7472C17.866 24.0868 17.3307 23.5514 16.6702 23.5514C16.0098 23.5514 15.4745 24.0868 15.4745 24.7472ZM15.3416 24.7472C15.3416 24.0134 15.9364 23.4186 16.6702 23.4186C17.4041 23.4186 17.9989 24.0134 17.9989 24.7472C17.9989 25.4811 17.4041 26.0759 16.6702 26.0759C15.9364 26.0759 15.3416 25.4811 15.3416 24.7472Z" fill="black"/>
<path d="M15.2087 34.511C15.2087 35.3181 15.8631 35.9725 16.6702 35.9725C17.4774 35.9725 18.1318 35.3181 18.1318 34.511C18.1318 33.7038 17.4774 33.0494 16.6702 33.0494C15.8631 33.0494 15.2087 33.7038 15.2087 34.511ZM15.0463 34.511C15.0463 33.6141 15.7733 32.8871 16.6702 32.8871C17.5671 32.8871 18.2941 33.6141 18.2941 34.511C18.2941 35.4079 17.5671 36.1349 16.6702 36.1349C15.7733 36.1349 15.0463 35.4079 15.0463 34.511Z" fill="black"/>
<path d="M14.943 44.2747C14.943 45.2287 15.7163 46.0019 16.6702 46.0019C17.6242 46.0019 18.3974 45.2287 18.3974 44.2747C18.3974 43.3207 17.6242 42.5475 16.6702 42.5475C15.7163 42.5475 14.943 43.3207 14.943 44.2747ZM14.7511 44.2747C14.7511 43.2149 15.6104 42.3556 16.6702 42.3556C17.7301 42.3556 18.5894 43.2149 18.5894 44.2747C18.5894 45.3346 17.7301 46.1939 16.6702 46.1939C15.6104 46.1939 14.7511 45.3346 14.7511 44.2747Z" fill="black"/>
<path d="M14.6773 54.0385C14.6773 55.1392 15.5696 56.0315 16.6702 56.0315C17.7709 56.0315 18.6632 55.1392 18.6632 54.0385C18.6632 52.9378 17.7709 52.0455 16.6702 52.0455C15.5696 52.0455 14.6773 52.9378 14.6773 54.0385ZM14.4558 54.0385C14.4558 52.8156 15.4472 51.8241 16.6702 51.8241C17.8932 51.8241 18.8847 52.8156 18.8847 54.0385C18.8847 55.2614 17.8932 56.2529 16.6702 56.2529C15.4472 56.2529 14.4558 55.2614 14.4558 54.0385Z" fill="black"/>
<path d="M14.4115 63.8022C14.4115 65.0497 15.4228 66.061 16.6702 66.061C17.9177 66.061 18.929 65.0497 18.929 63.8022C18.929 62.5548 17.9177 61.5435 16.6702 61.5435C15.4228 61.5435 14.4115 62.5548 14.4115 63.8022ZM14.1606 63.8022C14.1606 62.4162 15.2842 61.2926 16.6702 61.2926C18.0563 61.2926 19.1799 62.4162 19.1799 63.8022C19.1799 65.1883 18.0563 66.3119 16.6702 66.3119C15.2842 66.3119 14.1606 65.1883 14.1606 63.8022Z" fill="black"/>
<path d="M14.1458 73.566C14.1458 74.9602 15.2761 76.0904 16.6702 76.0904C18.0644 76.0904 19.1947 74.9602 19.1947 73.566C19.1947 72.1718 18.0644 71.0416 16.6702 71.0416C15.2761 71.0416 14.1458 72.1718 14.1458 73.566ZM13.8653 73.566C13.8653 72.0169 15.1211 70.7611 16.6702 70.7611C18.2194 70.7611 19.4752 72.0169 19.4752 73.566C19.4752 75.1151 18.2194 76.3709 16.6702 76.3709C15.1211 76.3709 13.8653 75.1151 13.8653 73.566Z" fill="black"/>
<path d="M13.8801 83.3298C13.8801 84.8707 15.1292 86.1199 16.6702 86.1199C18.2113 86.1199 19.4604 84.8707 19.4604 83.3298C19.4604 81.7888 18.2113 80.5396 16.6702 80.5396C15.1292 80.5396 13.8801 81.7888 13.8801 83.3298ZM13.5701 83.3298C13.5701 81.6176 14.9581 80.2296 16.6702 80.2296C18.3824 80.2296 19.7704 81.6176 19.7704 83.3298C19.7704 85.0419 18.3824 86.4299 16.6702 86.4299C14.9581 86.4299 13.5701 85.0419 13.5701 83.3298Z" fill="black"/>
<path d="M13.6144 93.0935C13.6144 94.7812 14.9825 96.1495 16.6702 96.1495C18.358 96.1495 19.7261 94.7812 19.7261 93.0935C19.7261 91.4058 18.358 90.0375 16.6702 90.0375C14.9825 90.0375 13.6144 91.4058 13.6144 93.0935ZM13.2748 93.0935C13.2748 91.2183 14.795 89.6981 16.6702 89.6981C18.5455 89.6981 20.0657 91.2183 20.0657 93.0935C20.0657 94.9687 18.5455 96.4889 16.6702 96.4889C14.795 96.4889 13.2748 94.9687 13.2748 93.0935Z" fill="black"/>
<path d="M25.8329 5.2197C25.8329 5.55167 26.102 5.82076 26.434 5.82076C26.766 5.82076 27.0351 5.55167 27.0351 5.2197C27.0351 4.88773 26.766 4.61865 26.434 4.61865C26.102 4.61865 25.8329 4.88773 25.8329 5.2197ZM25.7662 5.2197C25.7662 4.85083 26.0651 4.55186 26.434 4.55186C26.8029 4.55186 27.1018 4.85083 27.1018 5.2197C27.1018 5.58858 26.8029 5.88755 26.434 5.88755C26.0651 5.88755 25.7662 5.58858 25.7662 5.2197Z" fill="black"/>
<path d="M25.5926 14.9835C25.5926 15.4482 25.9692 15.8249 26.434 15.8249C26.8988 15.8249 27.2754 15.4482 27.2754 14.9835C27.2754 14.5187 26.8988 14.142 26.434 14.142C25.9692 14.142 25.5926 14.5187 25.5926 14.9835ZM25.499 14.9835C25.499 14.4671 25.9176 14.0485 26.434 14.0485C26.9504 14.0485 27.369 14.4671 27.369 14.9835C27.369 15.4999 26.9504 15.9184 26.434 15.9184C25.9176 15.9184 25.499 15.4999 25.499 14.9835Z" fill="black"/>
<path d="M25.3521 24.7472C25.3521 25.3447 25.8365 25.8291 26.434 25.8291C27.0315 25.8291 27.5159 25.3447 27.5159 24.7472C27.5159 24.1497 27.0315 23.6653 26.434 23.6653C25.8365 23.6653 25.3521 24.1497 25.3521 24.7472ZM25.2319 24.7472C25.2319 24.0833 25.7701 23.5451 26.434 23.5451C27.0979 23.5451 27.6361 24.0833 27.6361 24.7472C27.6361 25.4111 27.0979 25.9493 26.434 25.9493C25.7701 25.9493 25.2319 25.4111 25.2319 24.7472Z" fill="black"/>
<path d="M25.1117 34.511C25.1117 35.2412 25.7038 35.8333 26.434 35.8333C27.1642 35.8333 27.7563 35.2412 27.7563 34.511C27.7563 33.7807 27.1642 33.1887 26.434 33.1887C25.7038 33.1887 25.1117 33.7807 25.1117 34.511ZM24.9647 34.511C24.9647 33.6995 25.6225 33.0417 26.434 33.0417C27.2455 33.0417 27.9032 33.6995 27.9032 34.511C27.9032 35.3224 27.2455 35.9802 26.434 35.9802C25.6225 35.9802 24.9647 35.3224 24.9647 34.511Z" fill="black"/>
<path d="M24.8713 44.2747C24.8713 45.1378 25.5709 45.8375 26.434 45.8375C27.2971 45.8375 27.9968 45.1378 27.9968 44.2747C27.9968 43.4116 27.2971 42.7119 26.434 42.7119C25.5709 42.7119 24.8713 43.4116 24.8713 44.2747ZM24.6976 44.2747C24.6976 43.3157 25.475 42.5383 26.434 42.5383C27.393 42.5383 28.1704 43.3157 28.1704 44.2747C28.1704 45.2337 27.393 46.0111 26.434 46.0111C25.475 46.0111 24.6976 45.2337 24.6976 44.2747Z" fill="black"/>
<path d="M24.6308 54.0385C24.6308 55.0343 25.4381 55.8417 26.434 55.8417C27.4299 55.8417 28.2372 55.0343 28.2372 54.0385C28.2372 53.0427 27.4299 52.2353 26.434 52.2353C25.4381 52.2353 24.6308 53.0427 24.6308 54.0385ZM24.4305 54.0385C24.4305 52.932 25.3275 52.035 26.434 52.035C27.5405 52.035 28.4375 52.932 28.4375 54.0385C28.4375 55.145 27.5405 56.042 26.434 56.042C25.3275 56.042 24.4305 55.145 24.4305 54.0385Z" fill="black"/>
<path d="M24.3904 63.8022C24.3904 64.9309 25.3053 65.8459 26.434 65.8459C27.5627 65.8459 28.4776 64.9309 28.4776 63.8022C28.4776 62.6736 27.5627 61.7586 26.434 61.7586C25.3053 61.7586 24.3904 62.6736 24.3904 63.8022ZM24.1633 63.8022C24.1633 62.5482 25.1799 61.5316 26.434 61.5316C27.6881 61.5316 28.7047 62.5482 28.7047 63.8022C28.7047 65.0563 27.6881 66.0729 26.434 66.0729C25.1799 66.0729 24.1633 65.0563 24.1633 63.8022Z" fill="black"/>
<path d="M24.15 73.566C24.15 74.8275 25.1726 75.85 26.434 75.85C27.6954 75.85 28.718 74.8275 28.718 73.566C28.718 72.3045 27.6954 71.282 26.434 71.282C25.1726 71.282 24.15 72.3045 24.15 73.566ZM23.8962 73.566C23.8962 72.1644 25.0324 71.0282 26.434 71.0282C27.8356 71.0282 28.9718 72.1644 28.9718 73.566C28.9718 74.9676 27.8356 76.1038 26.434 76.1038C25.0324 76.1038 23.8962 74.9676 23.8962 73.566Z" fill="black"/>
<path d="M23.9096 83.3298C23.9096 84.7239 25.0398 85.8542 26.434 85.8542C27.8282 85.8542 28.9584 84.7239 28.9584 83.3298C28.9584 81.9356 27.8282 80.8053 26.434 80.8053C25.0398 80.8053 23.9096 81.9356 23.9096 83.3298ZM23.6291 83.3298C23.6291 81.7806 24.8849 80.5248 26.434 80.5248C27.9831 80.5248 29.2389 81.7806 29.2389 83.3298C29.2389 84.8789 27.9831 86.1347 26.434 86.1347C24.8849 86.1347 23.6291 84.8789 23.6291 83.3298Z" fill="black"/>
<path d="M23.6692 93.0935C23.6692 94.6205 24.907 95.8583 26.434 95.8583C27.961 95.8583 29.1988 94.6205 29.1988 93.0935C29.1988 91.5664 27.961 90.3287 26.434 90.3287C24.907 90.3287 23.6692 91.5664 23.6692 93.0935ZM23.3619 93.0935C23.3619 91.3969 24.7374 90.0214 26.434 90.0214C28.1306 90.0214 29.5061 91.3969 29.5061 93.0935C29.5061 94.7902 28.1306 96.1656 26.434 96.1656C24.7374 96.1656 23.3619 94.7902 23.3619 93.0935Z" fill="black"/>
<path d="M35.66 5.2197C35.66 5.51671 35.9007 5.75749 36.1978 5.75749C36.4948 5.75749 36.7355 5.51671 36.7355 5.2197C36.7355 4.92268 36.4948 4.68191 36.1978 4.68191C35.9007 4.68191 35.66 4.92268 35.66 5.2197ZM35.6002 5.2197C35.6002 4.88968 35.8677 4.62215 36.1978 4.62215C36.5278 4.62215 36.7953 4.88968 36.7953 5.2197C36.7953 5.54971 36.5278 5.81724 36.1978 5.81724C35.8677 5.81724 35.6002 5.54971 35.6002 5.2197Z" fill="black"/>
<path d="M35.4449 14.9835C35.4449 15.3993 35.7819 15.7363 36.1978 15.7363C36.6136 15.7363 36.9506 15.3993 36.9506 14.9835C36.9506 14.5676 36.6136 14.2306 36.1978 14.2306C35.7819 14.2306 35.4449 14.5676 35.4449 14.9835ZM35.3612 14.9835C35.3612 14.5214 35.7357 14.1469 36.1978 14.1469C36.6598 14.1469 37.0343 14.5214 37.0343 14.9835C37.0343 15.4455 36.6598 15.82 36.1978 15.82C35.7357 15.82 35.3612 15.4455 35.3612 14.9835Z" fill="black"/>
<path d="M35.2298 24.7472C35.2298 25.2819 35.6631 25.7153 36.1978 25.7153C36.7324 25.7153 37.1657 25.2819 37.1657 24.7472C37.1657 24.2125 36.7324 23.7791 36.1978 23.7791C35.6631 23.7791 35.2298 24.2125 35.2298 24.7472ZM35.1222 24.7472C35.1222 24.1532 35.6037 23.6716 36.1978 23.6716C36.7918 23.6716 37.2733 24.1532 37.2733 24.7472C37.2733 25.3412 36.7918 25.8228 36.1978 25.8228C35.6037 25.8228 35.1222 25.3412 35.1222 24.7472Z" fill="black"/>
<path d="M35.0147 34.511C35.0147 35.1644 35.5444 35.6941 36.1978 35.6941C36.8511 35.6941 37.3808 35.1644 37.3808 34.511C37.3808 33.8576 36.8511 33.3278 36.1978 33.3278C35.5444 33.3278 35.0147 33.8576 35.0147 34.511ZM34.8832 34.511C34.8832 33.7849 35.4717 33.1964 36.1978 33.1964C36.9238 33.1964 37.5123 33.7849 37.5123 34.511C37.5123 35.237 36.9238 35.8256 36.1978 35.8256C35.4717 35.8256 34.8832 35.237 34.8832 34.511Z" fill="black"/>
<path d="M34.7996 44.2747C34.7996 45.0469 35.4255 45.6729 36.1978 45.6729C36.97 45.6729 37.5959 45.0469 37.5959 44.2747C37.5959 43.5025 36.97 42.8766 36.1978 42.8766C35.4255 42.8766 34.7996 43.5025 34.7996 44.2747ZM34.6441 44.2747C34.6441 43.4167 35.3397 42.7211 36.1978 42.7211C37.0558 42.7211 37.7514 43.4167 37.7514 44.2747C37.7514 45.1328 37.0558 45.8283 36.1978 45.8283C35.3397 45.8283 34.6441 45.1328 34.6441 44.2747Z" fill="black"/>
<path d="M34.5844 54.0385C34.5844 54.9295 35.3067 55.6519 36.1978 55.6519C37.0888 55.6519 37.8111 54.9295 37.8111 54.0385C37.8111 53.1474 37.0888 52.4251 36.1978 52.4251C35.3067 52.4251 34.5844 53.1474 34.5844 54.0385ZM34.4051 54.0385C34.4051 53.0484 35.2077 52.2459 36.1978 52.2459C37.1878 52.2459 37.9904 53.0484 37.9904 54.0385C37.9904 55.0285 37.1878 55.8311 36.1978 55.8311C35.2077 55.8311 34.4051 55.0285 34.4051 54.0385Z" fill="black"/>
<path d="M34.3692 63.8022C34.3692 64.8121 35.1879 65.6308 36.1978 65.6308C37.2076 65.6308 38.0263 64.8121 38.0263 63.8022C38.0263 62.7924 37.2076 61.9737 36.1978 61.9737C35.1879 61.9737 34.3692 62.7924 34.3692 63.8022ZM34.1661 63.8022C34.1661 62.6802 35.0757 61.7706 36.1978 61.7706C37.3198 61.7706 38.2294 62.6802 38.2294 63.8022C38.2294 64.9243 37.3198 65.8339 36.1978 65.8339C35.0757 65.8339 34.1661 64.9243 34.1661 63.8022Z" fill="black"/>
<path d="M34.1541 73.566C34.1541 74.6947 35.0691 75.6097 36.1978 75.6097C37.3264 75.6097 38.2414 74.6947 38.2414 73.566C38.2414 72.4373 37.3264 71.5224 36.1978 71.5224C35.0691 71.5224 34.1541 72.4373 34.1541 73.566ZM33.9271 73.566C33.9271 72.3119 34.9437 71.2953 36.1978 71.2953C37.4518 71.2953 38.4684 72.3119 38.4684 73.566C38.4684 74.8201 37.4518 75.8367 36.1978 75.8367C34.9437 75.8367 33.9271 74.8201 33.9271 73.566Z" fill="black"/>
<path d="M33.939 83.3298C33.939 84.5772 34.9503 85.5885 36.1978 85.5885C37.4452 85.5885 38.4565 84.5772 38.4565 83.3298C38.4565 82.0823 37.4452 81.071 36.1978 81.071C34.9503 81.071 33.939 82.0823 33.939 83.3298ZM33.6881 83.3298C33.6881 81.9437 34.8117 80.8201 36.1978 80.8201C37.5838 80.8201 38.7074 81.9437 38.7074 83.3298C38.7074 84.7158 37.5838 85.8394 36.1978 85.8394C34.8117 85.8394 33.6881 84.7158 33.6881 83.3298Z" fill="black"/>
<path d="M33.7239 93.0935C33.7239 94.4598 34.8315 95.5674 36.1978 95.5674C37.564 95.5674 38.6716 94.4598 38.6716 93.0935C38.6716 91.7273 37.564 90.6197 36.1978 90.6197C34.8315 90.6197 33.7239 91.7273 33.7239 93.0935ZM33.4491 93.0935C33.4491 91.5754 34.6797 90.3448 36.1978 90.3448C37.7158 90.3448 38.9464 91.5754 38.9464 93.0935C38.9464 94.6116 37.7158 95.8422 36.1978 95.8422C34.6797 95.8422 33.4491 94.6116 33.4491 93.0935Z" fill="black"/>
<path d="M45.487 5.2197C45.487 5.48176 45.6994 5.69422 45.9615 5.69422C46.2237 5.69422 46.436 5.48176 46.436 5.2197C46.436 4.95764 46.2237 4.74519 45.9615 4.74519C45.6994 4.74519 45.487 4.95764 45.487 5.2197ZM45.4343 5.2197C45.4343 4.92855 45.6704 4.69246 45.9615 4.69246C46.2527 4.69246 46.4888 4.92855 46.4888 5.2197C46.4888 5.51086 46.2527 5.74694 45.9615 5.74694C45.6704 5.74694 45.4343 5.51086 45.4343 5.2197Z" fill="black"/>
<path d="M45.2972 14.9835C45.2972 15.3504 45.5946 15.6478 45.9615 15.6478C46.3284 15.6478 46.6258 15.3504 46.6258 14.9835C46.6258 14.6165 46.3284 14.3191 45.9615 14.3191C45.5946 14.3191 45.2972 14.6165 45.2972 14.9835ZM45.2234 14.9835C45.2234 14.5758 45.5539 14.2453 45.9615 14.2453C46.3692 14.2453 46.6997 14.5758 46.6997 14.9835C46.6997 15.3911 46.3692 15.7216 45.9615 15.7216C45.5539 15.7216 45.2234 15.3911 45.2234 14.9835Z" fill="black"/>
<path d="M45.1074 24.7472C45.1074 25.219 45.4898 25.6013 45.9615 25.6013C46.4332 25.6013 46.8156 25.219 46.8156 24.7472C46.8156 24.2754 46.4332 23.8931 45.9615 23.8931C45.4898 23.8931 45.1074 24.2754 45.1074 24.7472ZM45.0125 24.7472C45.0125 24.2231 45.4374 23.7982 45.9615 23.7982C46.4856 23.7982 46.9106 24.2231 46.9106 24.7472C46.9106 25.2713 46.4856 25.6963 45.9615 25.6963C45.4374 25.6963 45.0125 25.2713 45.0125 24.7472Z" fill="black"/>
<path d="M44.9176 34.511C44.9176 35.0875 45.385 35.5549 45.9615 35.5549C46.5381 35.5549 47.0055 35.0875 47.0055 34.511C47.0055 33.9344 46.5381 33.467 45.9615 33.467C45.385 33.467 44.9176 33.9344 44.9176 34.511ZM44.8016 34.511C44.8016 33.8704 45.3208 33.351 45.9615 33.351C46.6022 33.351 47.1214 33.8704 47.1214 34.511C47.1214 35.1516 46.6022 35.6709 45.9615 35.6709C45.3208 35.6709 44.8016 35.1516 44.8016 34.511Z" fill="black"/>
<path d="M44.7278 44.2747C44.7278 44.9561 45.2801 45.5085 45.9615 45.5085C46.6429 45.5085 47.1953 44.9561 47.1953 44.2747C47.1953 43.5933 46.6429 43.041 45.9615 43.041C45.2801 43.041 44.7278 43.5933 44.7278 44.2747ZM44.5907 44.2747C44.5907 43.5176 45.2044 42.9039 45.9615 42.9039C46.7186 42.9039 47.3324 43.5176 47.3324 44.2747C47.3324 45.0318 46.7186 45.6456 45.9615 45.6456C45.2044 45.6456 44.5907 45.0318 44.5907 44.2747Z" fill="black"/>
<path d="M44.538 54.0385C44.538 54.8248 45.1752 55.462 45.9615 55.462C46.7478 55.462 47.3851 54.8248 47.3851 54.0385C47.3851 53.2522 46.7478 52.6149 45.9615 52.6149C45.1752 52.6149 44.538 53.2522 44.538 54.0385ZM44.3798 54.0385C44.3798 53.1649 45.0879 52.4568 45.9615 52.4568C46.8351 52.4568 47.5432 53.1649 47.5432 54.0385C47.5432 54.912 46.8351 55.6202 45.9615 55.6202C45.0879 55.6202 44.3798 54.912 44.3798 54.0385Z" fill="black"/>
<path d="M44.3481 63.8022C44.3481 64.6933 45.0705 65.4156 45.9615 65.4156C46.8526 65.4156 47.5749 64.6933 47.5749 63.8022C47.5749 62.9112 46.8526 62.1889 45.9615 62.1889C45.0705 62.1889 44.3481 62.9112 44.3481 63.8022ZM44.1689 63.8022C44.1689 62.8122 44.9715 62.0096 45.9615 62.0096C46.9516 62.0096 47.7541 62.8122 47.7541 63.8022C47.7541 64.7923 46.9516 65.5949 45.9615 65.5949C44.9715 65.5949 44.1689 64.7923 44.1689 63.8022Z" fill="black"/>
<path d="M44.1583 73.566C44.1583 74.5618 44.9657 75.3692 45.9615 75.3692C46.9573 75.3692 47.7647 74.5618 47.7647 73.566C47.7647 72.5702 46.9573 71.7628 45.9615 71.7628C44.9657 71.7628 44.1583 72.5702 44.1583 73.566ZM43.958 73.566C43.958 72.4595 44.855 71.5625 45.9615 71.5625C47.068 71.5625 47.965 72.4595 47.965 73.566C47.965 74.6725 47.068 75.5695 45.9615 75.5695C44.855 75.5695 43.958 74.6725 43.958 73.566Z" fill="black"/>
<path d="M43.9685 83.3298C43.9685 84.4304 44.8608 85.3227 45.9615 85.3227C47.0622 85.3227 47.9545 84.4304 47.9545 83.3298C47.9545 82.2291 47.0622 81.3368 45.9615 81.3368C44.8608 81.3368 43.9685 82.2291 43.9685 83.3298ZM43.7471 83.3298C43.7471 82.1068 44.7386 81.1153 45.9615 81.1153C47.1844 81.1153 48.1759 82.1068 48.1759 83.3298C48.1759 84.5527 47.1844 85.5442 45.9615 85.5442C44.7386 85.5442 43.7471 84.5527 43.7471 83.3298Z" fill="black"/>
<path d="M43.7787 93.0935C43.7787 94.299 44.756 95.2763 45.9615 95.2763C47.167 95.2763 48.1443 94.299 48.1443 93.0935C48.1443 91.888 47.167 90.9107 45.9615 90.9107C44.756 90.9107 43.7787 91.888 43.7787 93.0935ZM43.5362 93.0935C43.5362 91.754 44.622 90.6682 45.9615 90.6682C47.301 90.6682 48.3868 91.754 48.3868 93.0935C48.3868 94.433 47.301 95.5188 45.9615 95.5188C44.622 95.5188 43.5362 94.433 43.5362 93.0935Z" fill="black"/>
<path d="M55.314 5.2197C55.314 5.4468 55.4982 5.63095 55.7253 5.63095C55.9524 5.63095 56.1365 5.4468 56.1365 5.2197C56.1365 4.99259 55.9524 4.80845 55.7253 4.80845C55.4982 4.80845 55.314 4.99259 55.314 5.2197ZM55.2683 5.2197C55.2683 4.9673 55.4729 4.76275 55.7253 4.76275C55.9777 4.76275 56.1822 4.9673 56.1822 5.2197C56.1822 5.47209 55.9777 5.67664 55.7253 5.67664C55.4729 5.67664 55.2683 5.47209 55.2683 5.2197Z" fill="black"/>
<path d="M55.1496 14.9835C55.1496 15.3015 55.4073 15.5592 55.7253 15.5592C56.0433 15.5592 56.3009 15.3015 56.3009 14.9835C56.3009 14.6655 56.0433 14.4077 55.7253 14.4077C55.4073 14.4077 55.1496 14.6655 55.1496 14.9835ZM55.0856 14.9835C55.0856 14.6301 55.372 14.3437 55.7253 14.3437C56.0785 14.3437 56.365 14.6301 56.365 14.9835C56.365 15.3368 56.0785 15.6232 55.7253 15.6232C55.372 15.6232 55.0856 15.3368 55.0856 14.9835Z" fill="black"/>
<path d="M54.985 24.7472C54.985 25.156 55.3165 25.4875 55.7253 25.4875C56.1342 25.4875 56.4656 25.156 56.4656 24.7472C56.4656 24.3384 56.1342 24.0069 55.7253 24.0069C55.3165 24.0069 54.985 24.3384 54.985 24.7472ZM54.9028 24.7472C54.9028 24.293 55.2711 23.9247 55.7253 23.9247C56.1795 23.9247 56.5478 24.293 56.5478 24.7472C56.5478 25.2014 56.1795 25.5697 55.7253 25.5697C55.2711 25.5697 54.9028 25.2014 54.9028 24.7472Z" fill="black"/>
<path d="M54.8205 34.511C54.8205 35.0107 55.2257 35.4158 55.7253 35.4158C56.2249 35.4158 56.6301 35.0107 56.6301 34.511C56.6301 34.0113 56.2249 33.6062 55.7253 33.6062C55.2257 33.6062 54.8205 34.0113 54.8205 34.511ZM54.72 34.511C54.72 33.9557 55.17 33.5057 55.7253 33.5057C56.2805 33.5057 56.7305 33.9557 56.7305 34.511C56.7305 35.0662 56.2805 35.5162 55.7253 35.5162C55.17 35.5162 54.72 35.0662 54.72 34.511Z" fill="black"/>
<path d="M54.656 44.2747C54.656 44.8652 55.1348 45.344 55.7253 45.344C56.3158 45.344 56.7945 44.8652 56.7945 44.2747C56.7945 43.6842 56.3158 43.2055 55.7253 43.2055C55.1348 43.2055 54.656 43.6842 54.656 44.2747ZM54.5372 44.2747C54.5372 43.6185 55.069 43.0867 55.7253 43.0867C56.3815 43.0867 56.9133 43.6185 56.9133 44.2747C56.9133 44.9309 56.3815 45.4628 55.7253 45.4628C55.069 45.4628 54.5372 44.9309 54.5372 44.2747Z" fill="black"/>
<path d="M54.4915 54.0385C54.4915 54.7199 55.0439 55.2722 55.7253 55.2722C56.4067 55.2722 56.959 54.7199 56.959 54.0385C56.959 53.3571 56.4067 52.8047 55.7253 52.8047C55.0439 52.8047 54.4915 53.3571 54.4915 54.0385ZM54.3544 54.0385C54.3544 53.2814 54.9682 52.6677 55.7253 52.6677C56.4824 52.6677 57.0961 53.2814 57.0961 54.0385C57.0961 54.7956 56.4824 55.4093 55.7253 55.4093C54.9682 55.4093 54.3544 54.7956 54.3544 54.0385Z" fill="black"/>
<path d="M54.3271 63.8022C54.3271 64.5745 54.9531 65.2004 55.7253 65.2004C56.4975 65.2004 57.1234 64.5745 57.1234 63.8022C57.1234 63.03 56.4975 62.4041 55.7253 62.4041C54.9531 62.4041 54.3271 63.03 54.3271 63.8022ZM54.1717 63.8022C54.1717 62.9442 54.8672 62.2486 55.7253 62.2486C56.5833 62.2486 57.2789 62.9442 57.2789 63.8022C57.2789 64.6603 56.5833 65.3559 55.7253 65.3559C54.8672 65.3559 54.1717 64.6603 54.1717 63.8022Z" fill="black"/>
<path d="M54.1625 73.566C54.1625 74.4291 54.8622 75.1288 55.7253 75.1288C56.5884 75.1288 57.2881 74.4291 57.2881 73.566C57.2881 72.7029 56.5884 72.0032 55.7253 72.0032C54.8622 72.0032 54.1625 72.7029 54.1625 73.566ZM53.9889 73.566C53.9889 72.607 54.7663 71.8296 55.7253 71.8296C56.6843 71.8296 57.4617 72.607 57.4617 73.566C57.4617 74.525 56.6843 75.3024 55.7253 75.3024C54.7663 75.3024 53.9889 74.525 53.9889 73.566Z" fill="black"/>
<path d="M53.9981 83.3298C53.9981 84.2838 54.7713 85.057 55.7253 85.057C56.6793 85.057 57.4525 84.2838 57.4525 83.3298C57.4525 82.3757 56.6793 81.6026 55.7253 81.6026C54.7713 81.6026 53.9981 82.3757 53.9981 83.3298ZM53.8061 83.3298C53.8061 82.2699 54.6654 81.4106 55.7253 81.4106C56.7851 81.4106 57.6444 82.2699 57.6444 83.3298C57.6444 84.3896 56.7851 85.2489 55.7253 85.2489C54.6654 85.2489 53.8061 84.3896 53.8061 83.3298Z" fill="black"/>
<path d="M53.8335 93.0935C53.8335 94.1382 54.6806 94.9852 55.7253 94.9852C56.77 94.9852 57.617 94.1382 57.617 93.0935C57.617 92.0488 56.77 91.2018 55.7253 91.2018C54.6806 91.2018 53.8335 92.0488 53.8335 93.0935ZM53.6233 93.0935C53.6233 91.9326 54.5644 90.9916 55.7253 90.9916C56.8862 90.9916 57.8272 91.9326 57.8272 93.0935C57.8272 94.2544 56.8862 95.1955 55.7253 95.1955C54.5644 95.1955 53.6233 94.2544 53.6233 93.0935Z" fill="black"/>
<path d="M65.141 5.2197C65.141 5.41185 65.2968 5.56768 65.489 5.56768C65.6813 5.56768 65.837 5.41185 65.837 5.2197C65.837 5.02755 65.6813 4.87172 65.489 4.87172C65.2968 4.87172 65.141 5.02755 65.141 5.2197ZM65.1024 5.2197C65.1024 5.00617 65.2755 4.83306 65.489 4.83306C65.7027 4.83306 65.8757 5.00617 65.8757 5.2197C65.8757 5.43323 65.7027 5.60634 65.489 5.60634C65.2755 5.60634 65.1024 5.43323 65.1024 5.2197Z" fill="black"/>
<path d="M65.0019 14.9835C65.0019 15.2525 65.2199 15.4707 65.489 15.4707C65.7581 15.4707 65.9761 15.2525 65.9761 14.9835C65.9761 14.7144 65.7581 14.4962 65.489 14.4962C65.2199 14.4962 65.0019 14.7144 65.0019 14.9835ZM64.9477 14.9835C64.9477 14.6845 65.1901 14.4422 65.489 14.4422C65.788 14.4422 66.0303 14.6845 66.0303 14.9835C66.0303 15.2824 65.788 15.5248 65.489 15.5248C65.1901 15.5248 64.9477 15.2824 64.9477 14.9835Z" fill="black"/>
<path d="M64.8627 24.7472C64.8627 25.0931 65.1431 25.3736 65.489 25.3736C65.835 25.3736 66.1154 25.0931 66.1154 24.7472C66.1154 24.4013 65.835 24.1209 65.489 24.1209C65.1431 24.1209 64.8627 24.4013 64.8627 24.7472ZM64.7931 24.7472C64.7931 24.3628 65.1046 24.0513 65.489 24.0513C65.8734 24.0513 66.185 24.3628 66.185 24.7472C66.185 25.1316 65.8734 25.4432 65.489 25.4432C65.1046 25.4432 64.7931 25.1316 64.7931 24.7472Z" fill="black"/>
<path d="M64.7234 34.511C64.7234 34.9338 65.0663 35.2766 65.489 35.2766C65.9118 35.2766 66.2546 34.9338 66.2546 34.511C66.2546 34.0881 65.9118 33.7454 65.489 33.7454C65.0663 33.7454 64.7234 34.0881 64.7234 34.511ZM64.6384 34.511C64.6384 34.0411 65.0192 33.6604 65.489 33.6604C65.9589 33.6604 66.3397 34.0411 66.3397 34.511C66.3397 34.9808 65.9589 35.3616 65.489 35.3616C65.0192 35.3616 64.6384 34.9808 64.6384 34.511Z" fill="black"/>
<path d="M64.5842 44.2747C64.5842 44.7744 64.9894 45.1795 65.489 45.1795C65.9886 45.1795 66.3938 44.7744 66.3938 44.2747C66.3938 43.775 65.9886 43.3699 65.489 43.3699C64.9894 43.3699 64.5842 43.775 64.5842 44.2747ZM64.4837 44.2747C64.4837 43.7195 64.9338 43.2695 65.489 43.2695C66.0443 43.2695 66.4943 43.7195 66.4943 44.2747C66.4943 44.83 66.0443 45.28 65.489 45.28C64.9338 45.28 64.4837 44.83 64.4837 44.2747Z" fill="black"/>
<path d="M64.4451 54.0385C64.4451 54.615 64.9125 55.0824 65.489 55.0824C66.0656 55.0824 66.533 54.615 66.533 54.0385C66.533 53.4619 66.0656 52.9945 65.489 52.9945C64.9125 52.9945 64.4451 53.4619 64.4451 54.0385ZM64.3291 54.0385C64.3291 53.3978 64.8483 52.8786 65.489 52.8786C66.1297 52.8786 66.649 53.3978 66.649 54.0385C66.649 54.6792 66.1297 55.1984 65.489 55.1984C64.8483 55.1984 64.3291 54.6792 64.3291 54.0385Z" fill="black"/>
<path d="M64.306 63.8022C64.306 64.4556 64.8356 64.9853 65.489 64.9853C66.1424 64.9853 66.6721 64.4556 66.6721 63.8022C66.6721 63.1489 66.1424 62.6192 65.489 62.6192C64.8356 62.6192 64.306 63.1489 64.306 63.8022ZM64.1744 63.8022C64.1744 63.0762 64.763 62.4877 65.489 62.4877C66.2151 62.4877 66.8036 63.0762 66.8036 63.8022C66.8036 64.5283 66.2151 65.1168 65.489 65.1168C64.763 65.1168 64.1744 64.5283 64.1744 63.8022Z" fill="black"/>
<path d="M64.1667 73.566C64.1667 74.2962 64.7588 74.8883 65.489 74.8883C66.2193 74.8883 66.8113 74.2962 66.8113 73.566C66.8113 72.8358 66.2193 72.2437 65.489 72.2437C64.7588 72.2437 64.1667 72.8358 64.1667 73.566ZM64.0198 73.566C64.0198 72.7545 64.6776 72.0967 65.489 72.0967C66.3005 72.0967 66.9583 72.7545 66.9583 73.566C66.9583 74.3775 66.3005 75.0352 65.489 75.0352C64.6776 75.0352 64.0198 74.3775 64.0198 73.566Z" fill="black"/>
<path d="M64.0275 83.3298C64.0275 84.1369 64.6819 84.7913 65.489 84.7913C66.2962 84.7913 66.9506 84.1369 66.9506 83.3298C66.9506 82.5226 66.2962 81.8682 65.489 81.8682C64.6819 81.8682 64.0275 82.5226 64.0275 83.3298ZM63.8651 83.3298C63.8651 82.4329 64.5921 81.7059 65.489 81.7059C66.3859 81.7059 67.1129 82.4329 67.1129 83.3298C67.1129 84.2267 66.3859 84.9537 65.489 84.9537C64.5921 84.9537 63.8651 84.2267 63.8651 83.3298Z" fill="black"/>
<path d="M63.8883 93.0935C63.8883 93.9776 64.6049 94.6943 65.489 94.6943C66.3731 94.6943 67.0898 93.9776 67.0898 93.0935C67.0898 92.2094 66.3731 91.4928 65.489 91.4928C64.6049 91.4928 63.8883 92.2094 63.8883 93.0935ZM63.7105 93.0935C63.7105 92.1112 64.5067 91.315 65.489 91.315C66.4714 91.315 67.2676 92.1112 67.2676 93.0935C67.2676 94.0758 66.4714 94.8721 65.489 94.8721C64.5067 94.8721 63.7105 94.0758 63.7105 93.0935Z" fill="black"/>
<path d="M74.9681 5.2197C74.9681 5.3769 75.0956 5.50441 75.2528 5.50441C75.41 5.50441 75.5375 5.3769 75.5375 5.2197C75.5375 5.06241 75.41 4.93499 75.2528 4.93499C75.0956 4.93499 74.9681 5.06241 74.9681 5.2197ZM74.9364 5.2197C74.9364 5.04493 75.0781 4.90335 75.2528 4.90335C75.4275 4.90335 75.5691 5.04493 75.5691 5.2197C75.5691 5.39438 75.4275 5.53605 75.2528 5.53605C75.0781 5.53605 74.9364 5.39438 74.9364 5.2197Z" fill="black"/>
<path d="M74.8542 14.9835C74.8542 15.2036 75.0326 15.3821 75.2528 15.3821C75.473 15.3821 75.6513 15.2036 75.6513 14.9835C75.6513 14.7633 75.473 14.5848 75.2528 14.5848C75.0326 14.5848 74.8542 14.7633 74.8542 14.9835ZM74.8099 14.9835C74.8099 14.7389 75.0082 14.5406 75.2528 14.5406C75.4974 14.5406 75.6957 14.7389 75.6957 14.9835C75.6957 15.228 75.4974 15.4263 75.2528 15.4263C75.0082 15.4263 74.8099 15.228 74.8099 14.9835Z" fill="black"/>
<path d="M74.7403 24.7472C74.7403 25.0303 74.9698 25.2597 75.2528 25.2597C75.5357 25.2597 75.7653 25.0303 75.7653 24.7472C75.7653 24.4642 75.5357 24.2347 75.2528 24.2347C74.9698 24.2347 74.7403 24.4642 74.7403 24.7472ZM74.6834 24.7472C74.6834 24.4327 74.9383 24.1778 75.2528 24.1778C75.5673 24.1778 75.8222 24.4327 75.8222 24.7472C75.8222 25.0617 75.5673 25.3166 75.2528 25.3166C74.9383 25.3166 74.6834 25.0617 74.6834 24.7472Z" fill="black"/>
<path d="M74.6264 34.511C74.6264 34.8569 74.9069 35.1373 75.2528 35.1373C75.5987 35.1373 75.8791 34.8569 75.8791 34.511C75.8791 34.165 75.5987 33.8846 75.2528 33.8846C74.9069 33.8846 74.6264 34.165 74.6264 34.511ZM74.5568 34.511C74.5568 34.1266 74.8684 33.815 75.2528 33.815C75.6372 33.815 75.9487 34.1266 75.9487 34.511C75.9487 34.8954 75.6372 35.2069 75.2528 35.2069C74.8684 35.2069 74.5568 34.8954 74.5568 34.511Z" fill="black"/>
<path d="M74.5125 44.2747C74.5125 44.6836 74.844 45.015 75.2528 45.015C75.6617 45.015 75.9931 44.6836 75.9931 44.2747C75.9931 43.8659 75.6617 43.5344 75.2528 43.5344C74.844 43.5344 74.5125 43.8659 74.5125 44.2747ZM74.4303 44.2747C74.4303 43.8205 74.7986 43.4522 75.2528 43.4522C75.707 43.4522 76.0753 43.8205 76.0753 44.2747C76.0753 44.7289 75.707 45.0972 75.2528 45.0972C74.7986 45.0972 74.4303 44.7289 74.4303 44.2747Z" fill="black"/>
<path d="M74.3987 54.0385C74.3987 54.5102 74.7811 54.8926 75.2528 54.8926C75.7245 54.8926 76.1069 54.5102 76.1069 54.0385C76.1069 53.5668 75.7245 53.1844 75.2528 53.1844C74.7811 53.1844 74.3987 53.5668 74.3987 54.0385ZM74.3037 54.0385C74.3037 53.5144 74.7287 53.0894 75.2528 53.0894C75.7769 53.0894 76.2018 53.5144 76.2018 54.0385C76.2018 54.5626 75.7769 54.9875 75.2528 54.9875C74.7287 54.9875 74.3037 54.5626 74.3037 54.0385Z" fill="black"/>
<path d="M74.2848 63.8022C74.2848 64.3369 74.7181 64.7702 75.2528 64.7702C75.7875 64.7702 76.2208 64.3369 76.2208 63.8022C76.2208 63.2676 75.7875 62.8343 75.2528 62.8343C74.7181 62.8343 74.2848 63.2676 74.2848 63.8022ZM74.1772 63.8022C74.1772 63.2082 74.6588 62.7267 75.2528 62.7267C75.8468 62.7267 76.3284 63.2082 76.3284 63.8022C76.3284 64.3963 75.8468 64.8778 75.2528 64.8778C74.6588 64.8778 74.1772 64.3963 74.1772 63.8022Z" fill="black"/>
<path d="M74.1709 73.566C74.1709 74.1635 74.6552 74.6479 75.2528 74.6479C75.8503 74.6479 76.3347 74.1635 76.3347 73.566C76.3347 72.9685 75.8503 72.4841 75.2528 72.4841C74.6552 72.4841 74.1709 72.9685 74.1709 73.566ZM74.0507 73.566C74.0507 72.9021 74.5889 72.3639 75.2528 72.3639C75.9167 72.3639 76.455 72.9021 76.455 73.566C76.455 74.2299 75.9167 74.7681 75.2528 74.7681C74.5889 74.7681 74.0507 74.2299 74.0507 73.566Z" fill="black"/>
<path d="M74.057 83.3298C74.057 83.9902 74.5924 84.5255 75.2528 84.5255C75.9132 84.5255 76.4486 83.9902 76.4486 83.3298C76.4486 82.6693 75.9132 82.134 75.2528 82.134C74.5924 82.134 74.057 82.6693 74.057 83.3298ZM73.9241 83.3298C73.9241 82.5959 74.5189 82.0011 75.2528 82.0011C75.9866 82.0011 76.5814 82.5959 76.5814 83.3298C76.5814 84.0636 75.9866 84.6584 75.2528 84.6584C74.5189 84.6584 73.9241 84.0636 73.9241 83.3298Z" fill="black"/>
<path d="M73.9431 93.0935C73.9431 93.8168 74.5295 94.4032 75.2528 94.4032C75.9761 94.4032 76.5625 93.8168 76.5625 93.0935C76.5625 92.3702 75.9761 91.7838 75.2528 91.7838C74.5295 91.7838 73.9431 92.3702 73.9431 93.0935ZM73.7976 93.0935C73.7976 92.2898 74.4491 91.6383 75.2528 91.6383C76.0564 91.6383 76.708 92.2898 76.708 93.0935C76.708 93.8972 76.0564 94.5487 75.2528 94.5487C74.4491 94.5487 73.7976 93.8972 73.7976 93.0935Z" fill="black"/>
<path d="M84.7951 5.21971C84.7951 5.34195 84.8942 5.44114 85.0165 5.44114C85.1389 5.44114 85.238 5.34195 85.238 5.21971C85.238 5.09746 85.1389 4.99827 85.0165 4.99827C84.8942 4.99827 84.7951 5.09746 84.7951 5.21971ZM84.7705 5.21971C84.7705 5.08379 84.8806 4.97366 85.0165 4.97366C85.1525 4.97366 85.2626 5.08379 85.2626 5.21971C85.2626 5.35552 85.1525 5.46575 85.0165 5.46575C84.8806 5.46575 84.7705 5.35552 84.7705 5.21971Z" fill="black"/>
<path d="M84.7065 14.9835C84.7065 15.1546 84.8453 15.2935 85.0165 15.2935C85.1878 15.2935 85.3265 15.1546 85.3265 14.9835C85.3265 14.8123 85.1878 14.6735 85.0165 14.6735C84.8453 14.6735 84.7065 14.8123 84.7065 14.9835ZM84.6721 14.9835C84.6721 14.7933 84.8263 14.639 85.0165 14.639C85.2067 14.639 85.361 14.7933 85.361 14.9835C85.361 15.1737 85.2067 15.3279 85.0165 15.3279C84.8263 15.3279 84.6721 15.1737 84.6721 14.9835Z" fill="black"/>
<path d="M84.618 24.7472C84.618 24.9674 84.7964 25.1459 85.0165 25.1459C85.2367 25.1459 85.4151 24.9674 85.4151 24.7472C85.4151 24.527 85.2367 24.3486 85.0165 24.3486C84.7964 24.3486 84.618 24.527 84.618 24.7472ZM84.5737 24.7472C84.5737 24.5026 84.772 24.3043 85.0165 24.3043C85.2611 24.3043 85.4594 24.5026 85.4594 24.7472C85.4594 24.9918 85.2611 25.1901 85.0165 25.1901C84.772 25.1901 84.5737 24.9918 84.5737 24.7472Z" fill="black"/>
<path d="M84.5294 34.511C84.5294 34.7801 84.7475 34.9982 85.0165 34.9982C85.2856 34.9982 85.5036 34.7801 85.5036 34.511C85.5036 34.2419 85.2856 34.0238 85.0165 34.0238C84.7475 34.0238 84.5294 34.2419 84.5294 34.511ZM84.4752 34.511C84.4752 34.212 84.7176 33.9697 85.0165 33.9697C85.3155 33.9697 85.5578 34.212 85.5578 34.511C85.5578 34.8099 85.3155 35.0523 85.0165 35.0523C84.7176 35.0523 84.4752 34.8099 84.4752 34.511Z" fill="black"/>
<path d="M84.4409 44.2747C84.4409 44.5927 84.6985 44.8504 85.0165 44.8504C85.3346 44.8504 85.5922 44.5927 85.5922 44.2747C85.5922 43.9567 85.3346 43.6991 85.0165 43.6991C84.6985 43.6991 84.4409 43.9567 84.4409 44.2747ZM84.3768 44.2747C84.3768 43.9215 84.6633 43.635 85.0165 43.635C85.3698 43.635 85.6563 43.9215 85.6563 44.2747C85.6563 44.628 85.3698 44.9145 85.0165 44.9145C84.6633 44.9145 84.3768 44.628 84.3768 44.2747Z" fill="black"/>
<path d="M84.3522 54.0385C84.3522 54.4054 84.6496 54.7028 85.0165 54.7028C85.3835 54.7028 85.6809 54.4054 85.6809 54.0385C85.6809 53.6716 85.3835 53.3742 85.0165 53.3742C84.6496 53.3742 84.3522 53.6716 84.3522 54.0385ZM84.2784 54.0385C84.2784 53.6308 84.6088 53.3003 85.0165 53.3003C85.4243 53.3003 85.7547 53.6308 85.7547 54.0385C85.7547 54.4461 85.4243 54.7766 85.0165 54.7766C84.6088 54.7766 84.2784 54.4461 84.2784 54.0385Z" fill="black"/>
<path d="M84.2636 63.8022C84.2636 64.2181 84.6007 64.5551 85.0165 64.5551C85.4324 64.5551 85.7694 64.2181 85.7694 63.8022C85.7694 63.3864 85.4324 63.0494 85.0165 63.0494C84.6007 63.0494 84.2636 63.3864 84.2636 63.8022ZM84.18 63.8022C84.18 63.3402 84.5545 62.9657 85.0165 62.9657C85.4786 62.9657 85.8531 63.3402 85.8531 63.8022C85.8531 64.2643 85.4786 64.6388 85.0165 64.6388C84.5545 64.6388 84.18 64.2643 84.18 63.8022Z" fill="black"/>
<path d="M84.1751 73.566C84.1751 74.0308 84.5518 74.4074 85.0165 74.4074C85.4813 74.4074 85.858 74.0308 85.858 73.566C85.858 73.1012 85.4813 72.7246 85.0165 72.7246C84.5518 72.7246 84.1751 73.1012 84.1751 73.566ZM84.0816 73.566C84.0816 73.0496 84.5001 72.631 85.0165 72.631C85.5329 72.631 85.9515 73.0496 85.9515 73.566C85.9515 74.0824 85.5329 74.501 85.0165 74.501C84.5001 74.501 84.0816 74.0824 84.0816 73.566Z" fill="black"/>
<path d="M84.0865 83.3298C84.0865 83.8434 84.5029 84.2598 85.0165 84.2598C85.5302 84.2598 85.9465 83.8434 85.9465 83.3298C85.9465 82.8161 85.5302 82.3998 85.0165 82.3998C84.5029 82.3998 84.0865 82.8161 84.0865 83.3298ZM83.9831 83.3298C83.9831 82.759 84.4458 82.2964 85.0165 82.2964C85.5873 82.2964 86.0499 82.759 86.0499 83.3298C86.0499 83.9005 85.5873 84.3632 85.0165 84.3632C84.4458 84.3632 83.9831 83.9005 83.9831 83.3298Z" fill="black"/>
<path d="M83.9979 93.0935C83.9979 93.6561 84.454 94.1122 85.0165 94.1122C85.5791 94.1122 86.0352 93.6561 86.0352 93.0935C86.0352 92.5309 85.5791 92.0748 85.0165 92.0748C84.454 92.0748 83.9979 92.5309 83.9979 93.0935ZM83.8847 93.0935C83.8847 92.4684 84.3915 91.9617 85.0165 91.9617C85.6416 91.9617 86.1484 92.4684 86.1484 93.0935C86.1484 93.7186 85.6416 94.2253 85.0165 94.2253C84.3915 94.2253 83.8847 93.7186 83.8847 93.0935Z" fill="black"/>
<path d="M94.6221 5.2197C94.6221 5.30709 94.6929 5.37788 94.7803 5.37788C94.8677 5.37788 94.9385 5.30709 94.9385 5.2197C94.9385 5.13232 94.8677 5.06153 94.7803 5.06153C94.6929 5.06153 94.6221 5.13232 94.6221 5.2197ZM94.6045 5.2197C94.6045 5.12265 94.6832 5.04395 94.7803 5.04395C94.8773 5.04395 94.956 5.12265 94.956 5.2197C94.956 5.31675 94.8773 5.39545 94.7803 5.39545C94.6832 5.39545 94.6045 5.31675 94.6045 5.2197Z" fill="black"/>
<path d="M94.5589 14.9835C94.5589 15.1057 94.658 15.2049 94.7803 15.2049C94.9026 15.2049 95.0017 15.1057 95.0017 14.9835C95.0017 14.8612 94.9026 14.762 94.7803 14.762C94.658 14.762 94.5589 14.8612 94.5589 14.9835ZM94.5343 14.9835C94.5343 14.8475 94.6444 14.7374 94.7803 14.7374C94.9162 14.7374 95.0264 14.8475 95.0264 14.9835C95.0264 15.1194 94.9162 15.2295 94.7803 15.2295C94.6444 15.2295 94.5343 15.1194 94.5343 14.9835Z" fill="black"/>
<path d="M94.4956 24.7472C94.4956 24.9044 94.6231 25.0319 94.7803 25.0319C94.9375 25.0319 95.065 24.9044 95.065 24.7472C95.065 24.59 94.9375 24.4625 94.7803 24.4625C94.6231 24.4625 94.4956 24.59 94.4956 24.7472ZM94.464 24.7472C94.464 24.5724 94.6056 24.4309 94.7803 24.4309C94.955 24.4309 95.0967 24.5724 95.0967 24.7472C95.0967 24.922 94.955 25.0636 94.7803 25.0636C94.6056 25.0636 94.464 24.922 94.464 24.7472Z" fill="black"/>
<path d="M94.4323 34.511C94.4323 34.7031 94.5881 34.859 94.7803 34.859C94.9725 34.859 95.1283 34.7031 95.1283 34.511C95.1283 34.3188 94.9725 34.163 94.7803 34.163C94.5881 34.163 94.4323 34.3188 94.4323 34.511ZM94.3937 34.511C94.3937 34.2974 94.5668 34.1243 94.7803 34.1243C94.9939 34.1243 95.1669 34.2974 95.1669 34.511C95.1669 34.7245 94.9939 34.8976 94.7803 34.8976C94.5668 34.8976 94.3937 34.7245 94.3937 34.511Z" fill="black"/>
<path d="M94.369 44.2747C94.369 44.5018 94.5532 44.686 94.7803 44.686C95.0074 44.686 95.1916 44.5018 95.1916 44.2747C95.1916 44.0476 95.0074 43.8635 94.7803 43.8635C94.5532 43.8635 94.369 44.0476 94.369 44.2747ZM94.3234 44.2747C94.3234 44.0223 94.5279 43.8178 94.7803 43.8178C95.0327 43.8178 95.2372 44.0223 95.2372 44.2747C95.2372 44.5271 95.0327 44.7317 94.7803 44.7317C94.5279 44.7317 94.3234 44.5271 94.3234 44.2747Z" fill="black"/>
<path d="M94.3058 54.0385C94.3058 54.3006 94.5182 54.513 94.7803 54.513C95.0424 54.513 95.2548 54.3006 95.2548 54.0385C95.2548 53.7763 95.0424 53.564 94.7803 53.564C94.5182 53.564 94.3058 53.7763 94.3058 54.0385ZM94.2531 54.0385C94.2531 53.7473 94.4891 53.5112 94.7803 53.5112C95.0714 53.5112 95.3075 53.7473 95.3075 54.0385C95.3075 54.3296 95.0714 54.5657 94.7803 54.5657C94.4891 54.5657 94.2531 54.3296 94.2531 54.0385Z" fill="black"/>
<path d="M94.2425 63.8022C94.2425 64.0993 94.4833 64.34 94.7803 64.34C95.0773 64.34 95.3181 64.0993 95.3181 63.8022C95.3181 63.5052 95.0773 63.2645 94.7803 63.2645C94.4833 63.2645 94.2425 63.5052 94.2425 63.8022ZM94.1828 63.8022C94.1828 63.4722 94.4503 63.2047 94.7803 63.2047C95.1103 63.2047 95.3778 63.4722 95.3778 63.8022C95.3778 64.1323 95.1103 64.3998 94.7803 64.3998C94.4503 64.3998 94.1828 64.1323 94.1828 63.8022Z" fill="black"/>
<path d="M94.1792 73.566C94.1792 73.8979 94.4484 74.1671 94.7803 74.1671C95.1122 74.1671 95.3814 73.8979 95.3814 73.566C95.3814 73.2341 95.1122 72.9649 94.7803 72.9649C94.4484 72.9649 94.1792 73.2341 94.1792 73.566ZM94.1125 73.566C94.1125 73.1972 94.4115 72.8982 94.7803 72.8982C95.1491 72.8982 95.4482 73.1972 95.4482 73.566C95.4482 73.9348 95.1491 74.2338 94.7803 74.2338C94.4115 74.2338 94.1125 73.9348 94.1125 73.566Z" fill="black"/>
<path d="M94.116 83.3298C94.116 83.6967 94.4134 83.9941 94.7803 83.9941C95.1472 83.9941 95.4446 83.6967 95.4446 83.3298C95.4446 82.9628 95.1472 82.6654 94.7803 82.6654C94.4134 82.6654 94.116 82.9628 94.116 83.3298ZM94.0422 83.3298C94.0422 82.9221 94.3726 82.5916 94.7803 82.5916C95.188 82.5916 95.5184 82.9221 95.5184 83.3298C95.5184 83.7374 95.188 84.0679 94.7803 84.0679C94.3726 84.0679 94.0422 83.7374 94.0422 83.3298Z" fill="black"/>
<path d="M94.0527 93.0935C94.0527 93.4953 94.3785 93.8211 94.7803 93.8211C95.1821 93.8211 95.5079 93.4953 95.5079 93.0935C95.5079 92.6917 95.1821 92.3659 94.7803 92.3659C94.3785 92.3659 94.0527 92.6917 94.0527 93.0935ZM93.9719 93.0935C93.9719 92.647 94.3338 92.2851 94.7803 92.2851C95.2268 92.2851 95.5887 92.647 95.5887 93.0935C95.5887 93.54 95.2268 93.902 94.7803 93.902C94.3338 93.902 93.9719 93.54 93.9719 93.0935Z" fill="black"/>
<path d="M1.68718 0.337822C1.68718 0.151334 1.83825 0 2.0246 0C2.21095 0 2.36202 0.151334 2.36202 0.337822C2.36202 0.524212 2.21095 0.675254 2.0246 0.675254C1.83825 0.675254 1.68718 0.524212 1.68718 0.337822Z" fill="black"/>
<path d="M1.51845 10.1016C1.51845 9.82204 1.74504 9.59542 2.0246 9.59542C2.30417 9.59542 2.53075 9.82204 2.53075 10.1016C2.53075 10.3811 2.30417 10.6077 2.0246 10.6077C1.74504 10.6077 1.51845 10.3811 1.51845 10.1016Z" fill="black"/>
<path d="M1.34972 19.8653C1.34972 19.4927 1.6519 19.1905 2.0246 19.1905C2.3973 19.1905 2.69948 19.4927 2.69948 19.8653C2.69948 20.238 2.3973 20.5402 2.0246 20.5402C1.6519 20.5402 1.34972 20.238 1.34972 19.8653Z" fill="black"/>
<path d="M1.18099 29.6291C1.18099 29.1633 1.55869 28.7855 2.0246 28.7855C2.49052 28.7855 2.86821 29.1633 2.86821 29.6291C2.86821 30.0949 2.49052 30.4727 2.0246 30.4727C1.55869 30.4727 1.18099 30.0949 1.18099 29.6291Z" fill="black"/>
<path d="M1.01226 39.3928C1.01226 38.8338 1.46551 38.3805 2.0246 38.3805C2.58369 38.3805 3.03695 38.8338 3.03695 39.3928C3.03695 39.952 2.58369 40.4052 2.0246 40.4052C1.46551 40.4052 1.01226 39.952 1.01226 39.3928Z" fill="black"/>
<path d="M0.843569 49.1566C0.843569 48.5043 1.37234 47.9756 2.0246 47.9756C2.67687 47.9756 3.20564 48.5043 3.20564 49.1566C3.20564 49.8089 2.67687 50.3376 2.0246 50.3376C1.37234 50.3376 0.843569 49.8089 0.843569 49.1566Z" fill="black"/>
<path d="M0.674842 58.9204C0.674842 58.1749 1.27916 57.5706 2.0246 57.5706C2.77004 57.5706 3.37436 58.1749 3.37436 58.9204C3.37436 59.6658 2.77004 60.2701 2.0246 60.2701C1.27916 60.2701 0.674842 59.6658 0.674842 58.9204Z" fill="black"/>
<path d="M0.506143 68.6841C0.506143 67.8455 1.18595 67.1657 2.0246 67.1657C2.86326 67.1657 3.54306 67.8455 3.54306 68.6841C3.54306 69.5227 2.86326 70.2026 2.0246 70.2026C1.18595 70.2026 0.506143 69.5227 0.506143 68.6841Z" fill="black"/>
<path d="M0.337455 78.4479C0.337455 77.516 1.09281 76.7607 2.0246 76.7607C2.95639 76.7607 3.71175 77.516 3.71175 78.4479C3.71175 79.3797 2.95639 80.1351 2.0246 80.1351C1.09281 80.1351 0.337455 79.3797 0.337455 78.4479Z" fill="black"/>
<path d="M0.168727 88.2116C0.168727 87.1866 0.999604 86.3558 2.0246 86.3558C3.0496 86.3558 3.88048 87.1866 3.88048 88.2116C3.88048 89.2366 3.0496 90.0675 2.0246 90.0675C0.999604 90.0675 0.168727 89.2366 0.168727 88.2116Z" fill="black"/>
<path d="M0 97.9754C0 96.8573 0.906458 95.9508 2.0246 95.9508C3.14275 95.9508 4.04921 96.8573 4.04921 97.9754C4.04921 99.0934 3.14275 100 2.0246 100C0.906458 100 0 99.0934 0 97.9754Z" fill="black"/>
<path d="M11.479 0.337828C11.479 0.166962 11.6175 0.0283145 11.7884 0.0283145C11.9592 0.0283145 12.0977 0.166962 12.0977 0.337828C12.0977 0.508693 11.9592 0.64714 11.7884 0.64714C11.6175 0.64714 11.479 0.508693 11.479 0.337828Z" fill="black"/>
<path d="M11.3244 10.1016C11.3244 9.84528 11.5321 9.63761 11.7884 9.63761C12.0447 9.63761 12.2523 9.84528 12.2523 10.1016C12.2523 10.3579 12.0447 10.5655 11.7884 10.5655C11.5321 10.5655 11.3244 10.3579 11.3244 10.1016Z" fill="black"/>
<path d="M11.1697 19.8653C11.1697 19.5237 11.4467 19.2467 11.7884 19.2467C12.1301 19.2467 12.407 19.5237 12.407 19.8653C12.407 20.207 12.1301 20.484 11.7884 20.484C11.4467 20.484 11.1697 20.207 11.1697 19.8653Z" fill="black"/>
<path d="M11.0151 29.6291C11.0151 29.202 11.3613 28.8558 11.7884 28.8558C12.2154 28.8558 12.5616 29.202 12.5616 29.6291C12.5616 30.0562 12.2154 30.4024 11.7884 30.4024C11.3613 30.4024 11.0151 30.0562 11.0151 29.6291Z" fill="black"/>
<path d="M10.8604 39.3929C10.8604 38.8804 11.2759 38.4649 11.7884 38.4649C12.3009 38.4649 12.7163 38.8804 12.7163 39.3929C12.7163 39.9054 12.3009 40.3208 11.7884 40.3208C11.2759 40.3208 10.8604 39.9054 10.8604 39.3929Z" fill="black"/>
<path d="M10.7058 49.1566C10.7058 48.5587 11.1905 48.074 11.7884 48.074C12.3863 48.074 12.871 48.5587 12.871 49.1566C12.871 49.7545 12.3863 50.2392 11.7884 50.2392C11.1905 50.2392 10.7058 49.7545 10.7058 49.1566Z" fill="black"/>
<path d="M10.5511 58.9204C10.5511 58.237 11.1051 57.6831 11.7884 57.6831C12.4717 57.6831 13.0256 58.237 13.0256 58.9204C13.0256 59.6037 12.4717 60.1576 11.7884 60.1576C11.1051 60.1576 10.5511 59.6037 10.5511 58.9204Z" fill="black"/>
<path d="M10.3964 68.6841C10.3964 67.9154 11.0196 67.2922 11.7884 67.2922C12.5572 67.2922 13.1803 67.9154 13.1803 68.6841C13.1803 69.4528 12.5572 70.076 11.7884 70.076C11.0196 70.076 10.3964 69.4528 10.3964 68.6841Z" fill="black"/>
<path d="M10.2418 78.4479C10.2418 77.5938 10.9342 76.9013 11.7884 76.9013C12.6425 76.9013 13.3349 77.5938 13.3349 78.4479C13.3349 79.302 12.6425 79.9945 11.7884 79.9945C10.9342 79.9945 10.2418 79.302 10.2418 78.4479Z" fill="black"/>
<path d="M10.0871 88.2116C10.0871 87.2721 10.8488 86.5104 11.7884 86.5104C12.7279 86.5104 13.4896 87.2721 13.4896 88.2116C13.4896 89.1512 12.7279 89.9129 11.7884 89.9129C10.8488 89.9129 10.0871 89.1512 10.0871 88.2116Z" fill="black"/>
<path d="M9.93249 97.9754C9.93249 96.9504 10.7634 96.1195 11.7884 96.1195C12.8134 96.1195 13.6443 96.9504 13.6443 97.9754C13.6443 99.0006 12.8134 99.8315 11.7884 99.8315C10.7634 99.8315 9.93249 99.0006 9.93249 97.9754Z" fill="black"/>
<path d="M21.2709 0.337818C21.2709 0.182574 21.3968 0.0566238 21.5521 0.0566238C21.7075 0.0566238 21.8333 0.182574 21.8333 0.337818C21.8333 0.493159 21.7075 0.619012 21.5521 0.619012C21.3968 0.619012 21.2709 0.493159 21.2709 0.337818Z" fill="black"/>
<path d="M21.1303 10.1016C21.1303 9.86862 21.3192 9.67979 21.5521 9.67979C21.7851 9.67979 21.9739 9.86862 21.9739 10.1016C21.9739 10.3345 21.7851 10.5234 21.5521 10.5234C21.3192 10.5234 21.1303 10.3345 21.1303 10.1016Z" fill="black"/>
<path d="M20.9897 19.8653C20.9897 19.5548 21.2415 19.3029 21.5521 19.3029C21.8627 19.3029 22.1145 19.5548 22.1145 19.8653C22.1145 20.1759 21.8627 20.4277 21.5521 20.4277C21.2415 20.4277 20.9897 20.1759 20.9897 19.8653Z" fill="black"/>
<path d="M20.8491 29.6291C20.8491 29.2408 21.1638 28.9261 21.5521 28.9261C21.9404 28.9261 22.2551 29.2408 22.2551 29.6291C22.2551 30.0174 21.9404 30.3321 21.5521 30.3321C21.1638 30.3321 20.8491 30.0174 20.8491 29.6291Z" fill="black"/>
<path d="M20.7085 39.3928C20.7085 38.927 21.0862 38.5493 21.5521 38.5493C22.018 38.5493 22.3957 38.927 22.3957 39.3928C22.3957 39.8587 22.018 40.2364 21.5521 40.2364C21.0862 40.2364 20.7085 39.8587 20.7085 39.3928Z" fill="black"/>
<path d="M20.5679 49.1566C20.5679 48.6131 21.0086 48.1724 21.5521 48.1724C22.0957 48.1724 22.5363 48.6131 22.5363 49.1566C22.5363 49.7002 22.0957 50.1408 21.5521 50.1408C21.0086 50.1408 20.5679 49.7002 20.5679 49.1566Z" fill="black"/>
<path d="M20.4273 58.9204C20.4273 58.2992 20.931 57.7956 21.5521 57.7956C22.1733 57.7956 22.6769 58.2992 22.6769 58.9204C22.6769 59.5415 22.1733 60.0452 21.5521 60.0452C20.931 60.0452 20.4273 59.5415 20.4273 58.9204Z" fill="black"/>
<path d="M20.2867 68.6841C20.2867 67.9853 20.8532 67.4187 21.5521 67.4187C22.251 67.4187 22.8175 67.9853 22.8175 68.6841C22.8175 69.3829 22.251 69.9495 21.5521 69.9495C20.8532 69.9495 20.2867 69.3829 20.2867 68.6841Z" fill="black"/>
<path d="M20.1461 78.4479C20.1461 77.6714 20.7756 77.0419 21.5521 77.0419C22.3286 77.0419 22.9581 77.6714 22.9581 78.4479C22.9581 79.2244 22.3286 79.8539 21.5521 79.8539C20.7756 79.8539 20.1461 79.2244 20.1461 78.4479Z" fill="black"/>
<path d="M20.0055 88.2116C20.0055 87.3575 20.698 86.6651 21.5521 86.6651C22.4063 86.6651 23.0987 87.3575 23.0987 88.2116C23.0987 89.0658 22.4063 89.7582 21.5521 89.7582C20.698 89.7582 20.0055 89.0658 20.0055 88.2116Z" fill="black"/>
<path d="M19.8649 97.9754C19.8649 97.0435 20.6204 96.2882 21.5521 96.2882C22.4839 96.2882 23.2393 97.0435 23.2393 97.9754C23.2393 98.9068 22.4839 99.6626 21.5521 99.6626C20.6204 99.6626 19.8649 98.9068 19.8649 97.9754Z" fill="black"/>
<path d="M31.0628 0.337816C31.0628 0.198194 31.1761 0.0849308 31.3159 0.0849308C31.4557 0.0849308 31.569 0.198194 31.569 0.337816C31.569 0.477633 31.4557 0.590892 31.3159 0.590892C31.1761 0.590892 31.0628 0.477633 31.0628 0.337816Z" fill="black"/>
<path d="M30.9363 10.1016C30.9363 9.89186 31.1062 9.72197 31.3159 9.72197C31.5255 9.72197 31.6955 9.89186 31.6955 10.1016C31.6955 10.3112 31.5255 10.4812 31.3159 10.4812C31.1062 10.4812 30.9363 10.3112 30.9363 10.1016Z" fill="black"/>
<path d="M30.8097 19.8653C30.8097 19.5858 31.0363 19.3592 31.3159 19.3592C31.5954 19.3592 31.822 19.5858 31.822 19.8653C31.822 20.1449 31.5954 20.3715 31.3159 20.3715C31.0363 20.3715 30.8097 20.1449 30.8097 19.8653Z" fill="black"/>
<path d="M30.6832 29.6291C30.6832 29.2796 30.9664 28.9964 31.3159 28.9964C31.6653 28.9964 31.9486 29.2796 31.9486 29.6291C31.9486 29.9785 31.6653 30.2618 31.3159 30.2618C30.9664 30.2618 30.6832 29.9785 30.6832 29.6291Z" fill="black"/>
<path d="M30.5566 39.3928C30.5566 38.9736 30.8966 38.6336 31.3159 38.6336C31.7351 38.6336 32.0751 38.9736 32.0751 39.3928C32.0751 39.8122 31.7351 40.1521 31.3159 40.1521C30.8966 40.1521 30.5566 39.8122 30.5566 39.3928Z" fill="black"/>
<path d="M30.4301 49.1566C30.4301 48.6673 30.8267 48.2708 31.3159 48.2708C31.805 48.2708 32.2016 48.6673 32.2016 49.1566C32.2016 49.6459 31.805 50.0424 31.3159 50.0424C30.8267 50.0424 30.4301 49.6459 30.4301 49.1566Z" fill="black"/>
<path d="M30.3036 58.9204C30.3036 58.3612 30.7568 57.9081 31.3159 57.9081C31.875 57.9081 32.3282 58.3612 32.3282 58.9204C32.3282 59.4795 31.875 59.9327 31.3159 59.9327C30.7568 59.9327 30.3036 59.4795 30.3036 58.9204Z" fill="black"/>
<path d="M30.177 68.6841C30.177 68.0552 30.6869 67.5453 31.3159 67.5453C31.9448 67.5453 32.4547 68.0552 32.4547 68.6841C32.4547 69.313 31.9448 69.823 31.3159 69.823C30.6869 69.823 30.177 69.313 30.177 68.6841Z" fill="black"/>
<path d="M30.0505 78.4479C30.0505 77.7491 30.617 77.1825 31.3159 77.1825C32.0147 77.1825 32.5813 77.7491 32.5813 78.4479C32.5813 79.1467 32.0147 79.7133 31.3159 79.7133C30.617 79.7133 30.0505 79.1467 30.0505 78.4479Z" fill="black"/>
<path d="M29.924 88.2116C29.924 87.4429 30.5471 86.8197 31.3159 86.8197C32.0846 86.8197 32.7078 87.4429 32.7078 88.2116C32.7078 88.9803 32.0846 89.6035 31.3159 89.6035C30.5471 89.6035 29.924 88.9803 29.924 88.2116Z" fill="black"/>
<path d="M29.7974 97.9754C29.7974 97.1368 30.4773 96.4569 31.3159 96.4569C32.1545 96.4569 32.8343 97.1368 32.8343 97.9754C32.8343 98.8141 32.1545 99.4937 31.3159 99.4937C30.4773 99.4937 29.7974 98.8141 29.7974 97.9754Z" fill="black"/>
<path d="M40.8547 0.337821C40.8547 0.213822 40.9554 0.113255 41.0796 0.113255C41.2038 0.113255 41.3046 0.213822 41.3046 0.337821C41.3046 0.462016 41.2038 0.562779 41.0796 0.562779C40.9554 0.562779 40.8547 0.462016 40.8547 0.337821Z" fill="black"/>
<path d="M40.7422 10.1016C40.7422 9.91519 40.8933 9.76415 41.0796 9.76415C41.2659 9.76415 41.4171 9.91519 41.4171 10.1016C41.4171 10.288 41.2659 10.439 41.0796 10.439C40.8933 10.439 40.7422 10.288 40.7422 10.1016Z" fill="black"/>
<path d="M40.6297 19.8653C40.6297 19.6168 40.8311 19.4154 41.0796 19.4154C41.3281 19.4154 41.5295 19.6168 41.5295 19.8653C41.5295 20.1138 41.3281 20.3153 41.0796 20.3153C40.8311 20.3153 40.6297 20.1138 40.6297 19.8653Z" fill="black"/>
<path d="M40.5172 29.6291C40.5172 29.3185 40.769 29.0667 41.0796 29.0667C41.3903 29.0667 41.642 29.3185 41.642 29.6291C41.642 29.9397 41.3903 30.1915 41.0796 30.1915C40.769 30.1915 40.5172 29.9397 40.5172 29.6291Z" fill="black"/>
<path d="M40.4048 39.3928C40.4048 39.0202 40.707 38.718 41.0796 38.718C41.4523 38.718 41.7545 39.0202 41.7545 39.3928C41.7545 39.7655 41.4523 40.0677 41.0796 40.0677C40.707 40.0677 40.4048 39.7655 40.4048 39.3928Z" fill="black"/>
<path d="M40.2923 49.1566C40.2923 48.7218 40.6449 48.3693 41.0796 48.3693C41.5144 48.3693 41.867 48.7218 41.867 49.1566C41.867 49.5914 41.5144 49.944 41.0796 49.944C40.6449 49.944 40.2923 49.5914 40.2923 49.1566Z" fill="black"/>
<path d="M40.1798 58.9204C40.1798 58.4234 40.5827 58.0205 41.0796 58.0205C41.5766 58.0205 41.9795 58.4234 41.9795 58.9204C41.9795 59.4173 41.5766 59.8202 41.0796 59.8202C40.5827 59.8202 40.1798 59.4173 40.1798 58.9204Z" fill="black"/>
<path d="M40.0673 68.6841C40.0673 68.1249 40.5205 67.6718 41.0796 67.6718C41.6388 67.6718 42.0919 68.1249 42.0919 68.6841C42.0919 69.2433 41.6388 69.6964 41.0796 69.6964C40.5205 69.6964 40.0673 69.2433 40.0673 68.6841Z" fill="black"/>
<path d="M39.9548 78.4479C39.9548 77.8267 40.4585 77.3231 41.0796 77.3231C41.7008 77.3231 42.2044 77.8267 42.2044 78.4479C42.2044 79.0691 41.7008 79.5727 41.0796 79.5727C40.4585 79.5727 39.9548 79.0691 39.9548 78.4479Z" fill="black"/>
<path d="M39.8424 88.2116C39.8424 87.5283 40.3963 86.9744 41.0796 86.9744C41.763 86.9744 42.3169 87.5283 42.3169 88.2116C42.3169 88.895 41.763 89.4489 41.0796 89.4489C40.3963 89.4489 39.8424 88.895 39.8424 88.2116Z" fill="black"/>
<path d="M39.7299 97.9754C39.7299 97.2299 40.3342 96.6256 41.0796 96.6256C41.8251 96.6256 42.4294 97.2299 42.4294 97.9754C42.4294 98.7204 41.8251 99.3247 41.0796 99.3247C40.3342 99.3247 39.7299 98.7204 39.7299 97.9754Z" fill="black"/>
<path d="M50.6466 0.337819C50.6466 0.229442 50.7347 0.140589 50.8434 0.140589C50.9521 0.140589 51.0402 0.229442 51.0402 0.337819C51.0402 0.44649 50.9521 0.534658 50.8434 0.534658C50.7347 0.534658 50.6466 0.44649 50.6466 0.337819Z" fill="black"/>
<path d="M50.5481 10.1016C50.5481 9.93852 50.6803 9.80632 50.8434 9.80632C51.0065 9.80632 51.1387 9.93852 51.1387 10.1016C51.1387 10.2646 51.0065 10.3968 50.8434 10.3968C50.6803 10.3968 50.5481 10.2646 50.5481 10.1016Z" fill="black"/>
<path d="M50.4497 19.8653C50.4497 19.6479 50.626 19.4717 50.8434 19.4717C51.0608 19.4717 51.2371 19.6479 51.2371 19.8653C51.2371 20.0828 51.0608 20.259 50.8434 20.259C50.626 20.259 50.4497 20.0828 50.4497 19.8653Z" fill="black"/>
<path d="M50.3513 29.6291C50.3513 29.3573 50.5717 29.137 50.8434 29.137C51.1151 29.137 51.3355 29.3573 51.3355 29.6291C51.3355 29.9009 51.1151 30.1212 50.8434 30.1212C50.5717 30.1212 50.3513 29.9009 50.3513 29.6291Z" fill="black"/>
<path d="M50.2529 39.3928C50.2529 39.0667 50.5173 38.8023 50.8434 38.8023C51.1695 38.8023 51.4339 39.0667 51.4339 39.3928C51.4339 39.719 51.1695 39.9834 50.8434 39.9834C50.5173 39.9834 50.2529 39.719 50.2529 39.3928Z" fill="black"/>
<path d="M50.1545 49.1566C50.1545 48.7762 50.463 48.4677 50.8434 48.4677C51.2238 48.4677 51.5323 48.7762 51.5323 49.1566C51.5323 49.537 51.2238 49.8455 50.8434 49.8455C50.463 49.8455 50.1545 49.537 50.1545 49.1566Z" fill="black"/>
<path d="M50.056 58.9204C50.056 58.4855 50.4086 58.133 50.8434 58.133C51.2782 58.133 51.6307 58.4855 51.6307 58.9204C51.6307 59.3552 51.2782 59.7077 50.8434 59.7077C50.4086 59.7077 50.056 59.3552 50.056 58.9204Z" fill="black"/>
<path d="M49.9576 68.6841C49.9576 68.1949 50.3541 67.7984 50.8434 67.7984C51.3327 67.7984 51.7292 68.1949 51.7292 68.6841C51.7292 69.1734 51.3327 69.5699 50.8434 69.5699C50.3541 69.5699 49.9576 69.1734 49.9576 68.6841Z" fill="black"/>
<path d="M49.8592 78.4479C49.8592 77.9043 50.2999 77.4637 50.8434 77.4637C51.3869 77.4637 51.8276 77.9043 51.8276 78.4479C51.8276 78.9914 51.3869 79.4321 50.8434 79.4321C50.2999 79.4321 49.8592 78.9914 49.8592 78.4479Z" fill="black"/>
<path d="M49.7608 88.2116C49.7608 87.6137 50.2455 87.129 50.8434 87.129C51.4413 87.129 51.926 87.6137 51.926 88.2116C51.926 88.8096 51.4413 89.2942 50.8434 89.2942C50.2455 89.2942 49.7608 88.8096 49.7608 88.2116Z" fill="black"/>
<path d="M49.6624 97.9754C49.6624 97.3231 50.1911 96.7944 50.8434 96.7944C51.4957 96.7944 52.0244 97.3231 52.0244 97.9754C52.0244 98.6276 51.4957 99.1568 50.8434 99.1568C50.1911 99.1568 49.6624 98.6276 49.6624 97.9754Z" fill="black"/>
<path d="M60.4383 0.337825C60.4383 0.245069 60.514 0.168914 60.6072 0.168914C60.7003 0.168914 60.776 0.245069 60.776 0.337825C60.776 0.430971 60.7003 0.506545 60.6072 0.506545C60.514 0.506545 60.4383 0.430971 60.4383 0.337825Z" fill="black"/>
<path d="M60.3541 10.1016C60.3541 9.96176 60.4673 9.84851 60.6072 9.84851C60.747 9.84851 60.8602 9.96176 60.8602 10.1016C60.8602 10.2414 60.747 10.3547 60.6072 10.3547C60.4673 10.3547 60.3541 10.2414 60.3541 10.1016Z" fill="black"/>
<path d="M60.2697 19.8653C60.2697 19.6789 60.4209 19.5279 60.6072 19.5279C60.7934 19.5279 60.9446 19.6789 60.9446 19.8653C60.9446 20.0517 60.7934 20.2028 60.6072 20.2028C60.4209 20.2028 60.2697 20.0517 60.2697 19.8653Z" fill="black"/>
<path d="M60.1854 29.6291C60.1854 29.3961 60.3742 29.2073 60.6072 29.2073C60.8401 29.2073 61.0289 29.3961 61.0289 29.6291C61.0289 29.8621 60.8401 30.0509 60.6072 30.0509C60.3742 30.0509 60.1854 29.8621 60.1854 29.6291Z" fill="black"/>
<path d="M60.101 39.3928C60.101 39.1133 60.3276 38.8867 60.6072 38.8867C60.8867 38.8867 61.1133 39.1133 61.1133 39.3928C61.1133 39.6724 60.8867 39.899 60.6072 39.899C60.3276 39.899 60.101 39.6724 60.101 39.3928Z" fill="black"/>
<path d="M60.0166 49.1566C60.0166 48.8305 60.281 48.5661 60.6072 48.5661C60.9333 48.5661 61.1977 48.8305 61.1977 49.1566C61.1977 49.4827 60.9333 49.7471 60.6072 49.7471C60.281 49.7471 60.0166 49.4827 60.0166 49.1566Z" fill="black"/>
<path d="M59.9323 58.9204C59.9323 58.5477 60.2345 58.2455 60.6072 58.2455C60.9798 58.2455 61.282 58.5477 61.282 58.9204C61.282 59.293 60.9798 59.5952 60.6072 59.5952C60.2345 59.5952 59.9323 59.293 59.9323 58.9204Z" fill="black"/>
<path d="M59.8479 68.6841C59.8479 68.2648 60.1878 67.9249 60.6072 67.9249C61.0265 67.9249 61.3664 68.2648 61.3664 68.6841C61.3664 69.1035 61.0265 69.4434 60.6072 69.4434C60.1878 69.4434 59.8479 69.1035 59.8479 68.6841Z" fill="black"/>
<path d="M59.7636 78.4479C59.7636 77.9821 60.1413 77.6043 60.6072 77.6043C61.073 77.6043 61.4507 77.9821 61.4507 78.4479C61.4507 78.9137 61.073 79.2915 60.6072 79.2915C60.1413 79.2915 59.7636 78.9137 59.7636 78.4479Z" fill="black"/>
<path d="M59.6792 88.2116C59.6792 87.6991 60.0947 87.2837 60.6072 87.2837C61.1197 87.2837 61.5351 87.6991 61.5351 88.2116C61.5351 88.7241 61.1197 89.1396 60.6072 89.1396C60.0947 89.1396 59.6792 88.7241 59.6792 88.2116Z" fill="black"/>
<path d="M59.5948 97.9754C59.5948 97.4162 60.048 96.9631 60.6071 96.9631C61.1663 96.9631 61.6195 97.4162 61.6195 97.9754C61.6195 98.5349 61.1663 98.9879 60.6071 98.9879C60.048 98.9879 59.5948 98.5349 59.5948 97.9754Z" fill="black"/>
<path d="M70.2303 0.337823C70.2303 0.259712 70.2933 0.197221 70.3709 0.197221C70.4485 0.197221 70.5115 0.259712 70.5115 0.337823C70.5115 0.415444 70.4485 0.478424 70.3709 0.478424C70.2933 0.478424 70.2303 0.415444 70.2303 0.337823Z" fill="black"/>
<path d="M70.16 10.1016C70.16 9.9851 70.2544 9.89069 70.3709 9.89069C70.4874 9.89069 70.5818 9.9851 70.5818 10.1016C70.5818 10.2181 70.4874 10.3125 70.3709 10.3125C70.2544 10.3125 70.16 10.2181 70.16 10.1016Z" fill="black"/>
<path d="M70.0897 19.8653C70.0897 19.71 70.2156 19.5841 70.3709 19.5841C70.5262 19.5841 70.6521 19.71 70.6521 19.8653C70.6521 20.0207 70.5262 20.1465 70.3709 20.1465C70.2156 20.1465 70.0897 20.0207 70.0897 19.8653Z" fill="black"/>
<path d="M70.0194 29.6291C70.0194 29.435 70.1768 29.2776 70.3709 29.2776C70.565 29.2776 70.7224 29.435 70.7224 29.6291C70.7224 29.8232 70.565 29.9806 70.3709 29.9806C70.1768 29.9806 70.0194 29.8232 70.0194 29.6291Z" fill="black"/>
<path d="M69.9491 39.3928C69.9491 39.1599 70.1379 38.9711 70.3709 38.9711C70.6039 38.9711 70.7927 39.1599 70.7927 39.3928C70.7927 39.6258 70.6039 39.8146 70.3709 39.8146C70.1379 39.8146 69.9491 39.6258 69.9491 39.3928Z" fill="black"/>
<path d="M69.8788 49.1566C69.8788 48.8849 70.0992 48.6645 70.3709 48.6645C70.6426 48.6645 70.863 48.8849 70.863 49.1566C70.863 49.4283 70.6426 49.6487 70.3709 49.6487C70.0992 49.6487 69.8788 49.4283 69.8788 49.1566Z" fill="black"/>
<path d="M69.8085 58.9204C69.8085 58.6097 70.0602 58.358 70.3709 58.358C70.6816 58.358 70.9333 58.6097 70.9333 58.9204C70.9333 59.231 70.6816 59.4828 70.3709 59.4828C70.0602 59.4828 69.8085 59.231 69.8085 58.9204Z" fill="black"/>
<path d="M69.7382 68.6841C69.7382 68.3347 70.0215 68.0514 70.3709 68.0514C70.7204 68.0514 71.0036 68.3347 71.0036 68.6841C71.0036 69.0336 70.7204 69.3168 70.3709 69.3168C70.0215 69.3168 69.7382 69.0336 69.7382 68.6841Z" fill="black"/>
<path d="M69.6679 78.4479C69.6679 78.0596 69.9826 77.7449 70.3709 77.7449C70.7592 77.7449 71.0739 78.0596 71.0739 78.4479C71.0739 78.8362 70.7592 79.1509 70.3709 79.1509C69.9826 79.1509 69.6679 78.8362 69.6679 78.4479Z" fill="black"/>
<path d="M69.5976 88.2116C69.5976 87.7846 69.9438 87.4383 70.3709 87.4383C70.798 87.4383 71.1442 87.7846 71.1442 88.2116C71.1442 88.6387 70.798 88.9849 70.3709 88.9849C69.9438 88.9849 69.5976 88.6387 69.5976 88.2116Z" fill="black"/>
<path d="M69.5273 97.9754C69.5273 97.5096 69.9051 97.1318 70.3709 97.1318C70.8367 97.1318 71.2145 97.5096 71.2145 97.9754C71.2145 98.4411 70.8367 98.819 70.3709 98.819C69.9051 98.819 69.5273 98.4411 69.5273 97.9754Z" fill="black"/>
<path d="M80.0222 0.33783C80.0222 0.275342 80.0725 0.225547 80.1347 0.225547C80.1969 0.225547 80.2471 0.275342 80.2471 0.33783C80.2471 0.399927 80.1969 0.450304 80.1347 0.450304C80.0725 0.450304 80.0222 0.399927 80.0222 0.33783Z" fill="black"/>
<path d="M79.9658 10.1016C79.9658 10.0084 80.0415 9.93285 80.1347 9.93285C80.2278 9.93285 80.3035 10.0084 80.3035 10.1016C80.3035 10.1947 80.2278 10.2703 80.1347 10.2703C80.0415 10.2703 79.9658 10.1947 79.9658 10.1016Z" fill="black"/>
<path d="M79.9097 19.8653C79.9097 19.7411 80.0105 19.6404 80.1347 19.6404C80.2589 19.6404 80.3596 19.7411 80.3596 19.8653C80.3596 19.9895 80.2589 20.0903 80.1347 20.0903C80.0105 20.0903 79.9097 19.9895 79.9097 19.8653Z" fill="black"/>
<path d="M79.8535 29.6291C79.8535 29.4738 79.9793 29.3479 80.1347 29.3479C80.29 29.3479 80.4159 29.4738 80.4159 29.6291C80.4159 29.7844 80.29 29.9103 80.1347 29.9103C79.9793 29.9103 79.8535 29.7844 79.8535 29.6291Z" fill="black"/>
<path d="M79.7972 39.3928C79.7972 39.2066 79.9484 39.0554 80.1347 39.0554C80.321 39.0554 80.4721 39.2066 80.4721 39.3928C80.4721 39.5791 80.321 39.7303 80.1347 39.7303C79.9484 39.7303 79.7972 39.5791 79.7972 39.3928Z" fill="black"/>
<path d="M79.741 49.1566C79.741 48.9392 79.9172 48.7629 80.1347 48.7629C80.3521 48.7629 80.5283 48.9392 80.5283 49.1566C80.5283 49.374 80.3521 49.5503 80.1347 49.5503C79.9172 49.5503 79.741 49.374 79.741 49.1566Z" fill="black"/>
<path d="M79.6847 58.9204C79.6847 58.6719 79.8862 58.4704 80.1347 58.4704C80.3831 58.4704 80.5846 58.6719 80.5846 58.9204C80.5846 59.1688 80.3831 59.3703 80.1347 59.3703C79.8862 59.3703 79.6847 59.1688 79.6847 58.9204Z" fill="black"/>
<path d="M79.6285 68.6841C79.6285 68.4046 79.8551 68.178 80.1347 68.178C80.4142 68.178 80.6408 68.4046 80.6408 68.6841C80.6408 68.9637 80.4142 69.1903 80.1347 69.1903C79.8551 69.1903 79.6285 68.9637 79.6285 68.6841Z" fill="black"/>
<path d="M79.5723 78.4479C79.5723 78.1372 79.824 77.8855 80.1347 77.8855C80.4453 77.8855 80.6971 78.1372 80.6971 78.4479C80.6971 78.7586 80.4453 79.0103 80.1347 79.0103C79.824 79.0103 79.5723 78.7586 79.5723 78.4479Z" fill="black"/>
<path d="M79.516 88.2116C79.516 87.87 79.793 87.593 80.1347 87.593C80.4763 87.593 80.7533 87.87 80.7533 88.2116C80.7533 88.5533 80.4763 88.8303 80.1347 88.8303C79.793 88.8303 79.516 88.5533 79.516 88.2116Z" fill="black"/>
<path d="M79.4598 97.9754C79.4598 97.6027 79.762 97.3005 80.1347 97.3005C80.5073 97.3005 80.8095 97.6027 80.8095 97.9754C80.8095 98.3484 80.5073 98.65 80.1347 98.65C79.762 98.65 79.4598 98.3484 79.4598 97.9754Z" fill="black"/>
<path d="M89.8141 0.33782C89.8141 0.290954 89.8518 0.253856 89.8984 0.253856C89.9451 0.253856 89.9828 0.290954 89.9828 0.33782C89.9828 0.384394 89.9451 0.422176 89.8984 0.422176C89.8518 0.422176 89.8141 0.384394 89.8141 0.33782Z" fill="black"/>
<path d="M89.7719 10.1016C89.7719 10.0317 89.8285 9.97505 89.8984 9.97505C89.9683 9.97505 90.025 10.0317 90.025 10.1016C90.025 10.1715 89.9683 10.2281 89.8984 10.2281C89.8285 10.2281 89.7719 10.1715 89.7719 10.1016Z" fill="black"/>
<path d="M89.7296 19.8653C89.7296 19.7722 89.8053 19.6966 89.8984 19.6966C89.9916 19.6966 90.0672 19.7722 90.0672 19.8653C90.0672 19.9585 89.9916 20.0341 89.8984 20.0341C89.8053 20.0341 89.7296 19.9585 89.7296 19.8653Z" fill="black"/>
<path d="M89.6875 29.6291C89.6875 29.5126 89.7819 29.4182 89.8984 29.4182C90.0149 29.4182 90.1093 29.5126 90.1093 29.6291C90.1093 29.7456 90.0149 29.84 89.8984 29.84C89.7819 29.84 89.6875 29.7456 89.6875 29.6291Z" fill="black"/>
<path d="M89.6453 39.3928C89.6453 39.253 89.7586 39.1398 89.8984 39.1398C90.0382 39.1398 90.1515 39.253 90.1515 39.3928C90.1515 39.5327 90.0382 39.6459 89.8984 39.6459C89.7586 39.6459 89.6453 39.5327 89.6453 39.3928Z" fill="black"/>
<path d="M89.6032 49.1566C89.6032 48.9936 89.7354 48.8613 89.8984 48.8613C90.0615 48.8613 90.1937 48.9936 90.1937 49.1566C90.1937 49.3197 90.0615 49.4519 89.8984 49.4519C89.7354 49.4519 89.6032 49.3197 89.6032 49.1566Z" fill="black"/>
<path d="M89.561 58.9204C89.561 58.7341 89.7121 58.5829 89.8984 58.5829C90.0847 58.5829 90.2359 58.7341 90.2359 58.9204C90.2359 59.1067 90.0847 59.2578 89.8984 59.2578C89.7121 59.2578 89.561 59.1067 89.561 58.9204Z" fill="black"/>
<path d="M89.5188 68.6841C89.5188 68.4745 89.6888 68.3045 89.8984 68.3045C90.108 68.3045 90.278 68.4745 90.278 68.6841C90.278 68.8937 90.108 69.0637 89.8984 69.0637C89.6888 69.0637 89.5188 68.8937 89.5188 68.6841Z" fill="black"/>
<path d="M89.4766 78.4479C89.4766 78.2149 89.6655 78.0261 89.8984 78.0261C90.1314 78.0261 90.3202 78.2149 90.3202 78.4479C90.3202 78.6808 90.1314 78.8697 89.8984 78.8697C89.6655 78.8697 89.4766 78.6808 89.4766 78.4479Z" fill="black"/>
<path d="M89.4345 88.2116C89.4345 87.9554 89.6422 87.7477 89.8984 87.7477C90.1546 87.7477 90.3624 87.9554 90.3624 88.2116C90.3624 88.4678 90.1546 88.6756 89.8984 88.6756C89.6422 88.6756 89.4345 88.4678 89.4345 88.2116Z" fill="black"/>
<path d="M89.3923 97.9754C89.3923 97.6959 89.6189 97.4692 89.8984 97.4692C90.178 97.4692 90.4046 97.6959 90.4046 97.9754C90.4046 98.2546 90.178 98.4812 89.8984 98.4812C89.6189 98.4812 89.3923 98.2546 89.3923 97.9754Z" fill="black"/>
<path d="M99.6059 0.337818C99.6059 0.306574 99.6311 0.28119 99.6622 0.28119C99.6934 0.28119 99.7188 0.306574 99.7188 0.337818C99.7188 0.368867 99.6934 0.394055 99.6622 0.394055C99.6311 0.394055 99.6059 0.368867 99.6059 0.337818Z" fill="black"/>
<path d="M99.5778 10.1016C99.5778 10.055 99.6155 10.0172 99.6622 10.0172C99.7091 10.0172 99.7461 10.055 99.7461 10.1016C99.7461 10.1482 99.7091 10.1859 99.6622 10.1859C99.6155 10.1859 99.5778 10.1482 99.5778 10.1016Z" fill="black"/>
<path d="M99.5497 19.8653C99.5497 19.8032 99.6 19.7529 99.6622 19.7529C99.7247 19.7529 99.7745 19.8032 99.7745 19.8653C99.7745 19.9274 99.7247 19.9778 99.6622 19.9778C99.6 19.9778 99.5497 19.9274 99.5497 19.8653Z" fill="black"/>
<path d="M99.5216 29.6291C99.5216 29.5515 99.5846 29.4885 99.6622 29.4885C99.7393 29.4885 99.8028 29.5515 99.8028 29.6291C99.8028 29.7067 99.7393 29.7697 99.6622 29.7697C99.5846 29.7697 99.5216 29.7067 99.5216 29.6291Z" fill="black"/>
<path d="M99.4934 39.3928C99.4934 39.2997 99.569 39.2241 99.6622 39.2241C99.7549 39.2241 99.8311 39.2997 99.8311 39.3928C99.8311 39.486 99.7549 39.5616 99.6622 39.5616C99.569 39.5616 99.4934 39.486 99.4934 39.3928Z" fill="black"/>
<path d="M99.4653 49.1566C99.4653 49.0479 99.5535 48.9598 99.6622 48.9598C99.7706 48.9598 99.8594 49.0479 99.8594 49.1566C99.8594 49.2653 99.7706 49.3534 99.6622 49.3534C99.5535 49.3534 99.4653 49.2653 99.4653 49.1566Z" fill="black"/>
<path d="M99.4372 58.9204C99.4372 58.7962 99.538 58.6954 99.6622 58.6954C99.7862 58.6954 99.8867 58.7962 99.8867 58.9204C99.8867 59.0446 99.7862 59.1453 99.6622 59.1453C99.538 59.1453 99.4372 59.0446 99.4372 58.9204Z" fill="black"/>
<path d="M99.4091 68.6841C99.4091 68.5443 99.5224 68.431 99.6622 68.431C99.8018 68.431 99.9151 68.5443 99.9151 68.6841C99.9151 68.8239 99.8018 68.9372 99.6622 68.9372C99.5224 68.9372 99.4091 68.8239 99.4091 68.6841Z" fill="black"/>
<path d="M99.381 78.4479C99.381 78.2925 99.5068 78.1667 99.6622 78.1667C99.8174 78.1667 99.9434 78.2925 99.9434 78.4479C99.9434 78.6032 99.8174 78.7291 99.6622 78.7291C99.5068 78.7291 99.381 78.6032 99.381 78.4479Z" fill="black"/>
<path d="M99.3529 88.2116C99.3529 88.0408 99.4913 87.9023 99.6622 87.9023C99.8331 87.9023 99.9717 88.0408 99.9717 88.2116C99.9717 88.3825 99.8331 88.521 99.6622 88.521C99.4913 88.521 99.3529 88.3825 99.3529 88.2116Z" fill="black"/>
<path d="M99.3248 97.9754C99.3248 97.7891 99.4759 97.638 99.6622 97.638C99.8487 97.638 100 97.7891 100 97.9754C100 98.1619 99.8487 98.3132 99.6622 98.3132C99.4759 98.3132 99.3248 98.1619 99.3248 97.9754Z" fill="black"/>
</g>
<defs>
<clipPath id="clip0_54_236">
<rect width="100" height="100" fill="white"/>
</clipPath>
</defs>
</svg>
