<svg width="19" height="23" viewBox="0 0 19 23" fill="none" xmlns="http://www.w3.org/2000/svg">
<style>
path {
    fill: black;
}
@media (prefers-color-scheme: dark) {
    path {
    fill: white;
    }
}
</style>
<path d="M18.3618 22.3666C18.3345 22.4446 18.2826 22.5119 18.2134 22.5589C18.1443 22.6058 18.0617 22.6298 17.9776 22.6273H17.1391L17.66 20.0806C17.7224 20.2014 17.7785 20.3251 17.8281 20.4514L18.3729 22.118C18.4019 22.1992 18.3979 22.2882 18.3618 22.3666ZM0.0307025 22.3678C-0.00558506 22.2894 -0.00987144 22.2003 0.0187234 22.1189L0.55735 20.4705C0.608705 20.3379 0.667023 20.2081 0.732073 20.0814L1.25294 22.6273H0.414432C0.339781 22.628 0.26638 22.6085 0.202268 22.571C0.138155 22.5335 0.0858025 22.4795 0.0509414 22.4148C0.0431939 22.3996 0.0364348 22.3839 0.0307025 22.3678ZM5.67595 20.3361C5.77198 20.4481 5.89758 20.5321 6.03903 20.5789L7.23318 22.6273H6.21541L5.67595 20.3361ZM6.93247 20.4794L8.0027 20.181C8.33225 20.4659 8.75658 20.6231 9.19603 20.6231C9.63548 20.6231 10.0598 20.4659 10.3893 20.181L11.4596 20.4794L10.2072 22.6273H8.18486L6.93247 20.4794ZM12.353 20.5789C12.4363 20.551 12.5145 20.5103 12.5847 20.4583C12.6329 20.4223 12.6769 20.3813 12.7161 20.3361L12.1766 22.6273H11.1589L12.353 20.5789ZM11.0011 15.0354C10.4907 15.4414 9.85335 15.6629 9.19603 15.6629C8.5387 15.6629 7.90137 15.4414 7.39097 15.0354C7.09356 14.7966 6.82921 14.5699 6.57725 14.3392C6.58138 14.3796 6.58964 14.4201 6.59377 14.4565C6.63797 14.8139 6.66142 15.1734 6.66399 15.5333L9.19603 17.6627L11.7281 15.5333C11.7306 15.1734 11.7541 14.8139 11.7983 14.4565C11.8024 14.4161 11.8107 14.3796 11.8148 14.3392C11.5628 14.5699 11.2985 14.7966 11.0011 15.0354ZM2.31036 18.4197C1.65773 18.8852 1.5586 18.9662 1.52555 18.9986C1.47599 19.0471 1.43055 19.1038 1.38512 19.1524L2.09558 22.6257H3.3017L2.31036 18.4197ZM7.57271 18.95L6.30463 18.2213V19.8122L7.57271 19.46C7.55472 19.3761 7.54503 19.2907 7.5438 19.205C7.54526 19.1193 7.55494 19.0339 7.57271 18.95ZM7.57271 18.95L6.30463 18.2213V19.8122L7.57271 19.46C7.55472 19.3761 7.54503 19.2907 7.5438 19.205C7.54526 19.1193 7.55494 19.0339 7.57271 18.95ZM4.2476 17.8003C3.84573 17.8255 3.44945 17.9059 3.07039 18.0391L4.14847 22.6257H5.36699L4.25173 17.8813C4.24624 17.8546 4.24485 17.8273 4.2476 17.8003ZM7.57271 18.95L6.30463 18.2213V19.8122L7.57271 19.46C7.55472 19.3761 7.54503 19.2907 7.5438 19.205C7.54526 19.1193 7.55494 19.0339 7.57271 18.95ZM7.57271 18.95L6.30463 18.2213V19.8122L7.57271 19.46C7.55472 19.3761 7.54503 19.2907 7.5438 19.205C7.54526 19.1193 7.55494 19.0339 7.57271 18.95ZM9.19603 18.5978C8.74993 18.5978 8.36991 18.8771 8.36991 19.205C8.36991 19.537 8.74993 19.8122 9.19603 19.8122C9.64213 19.8122 10.0221 19.537 10.0221 19.205C10.0221 18.8771 9.64213 18.5978 9.19603 18.5978ZM14.1445 17.8003C14.1472 17.8273 14.1458 17.8546 14.1403 17.8813L13.0251 22.6257H14.2436L15.3217 18.0391C14.9426 17.9059 14.5463 17.8255 14.1445 17.8003ZM16.8665 18.9986C16.8335 18.9662 16.7343 18.8852 16.0817 18.4197L15.0904 22.6257H16.2965L17.0069 19.1524C16.9615 19.1038 16.9161 19.0471 16.8665 18.9986ZM9.19603 18.5978C8.74993 18.5978 8.36991 18.8771 8.36991 19.205C8.36991 19.537 8.74993 19.8122 9.19603 19.8122C9.64213 19.8122 10.0221 19.537 10.0221 19.205C10.0221 18.8771 9.64213 18.5978 9.19603 18.5978ZM9.19603 18.5978C8.74993 18.5978 8.36991 18.8771 8.36991 19.205C8.36991 19.537 8.74993 19.8122 9.19603 19.8122C9.64213 19.8122 10.0221 19.537 10.0221 19.205C10.0221 18.8771 9.64213 18.5978 9.19603 18.5978ZM10.8193 18.95C10.8371 19.0339 10.8468 19.1193 10.8483 19.205C10.847 19.2907 10.8373 19.3761 10.8193 19.46L12.0874 19.8122V18.2213L10.8193 18.95ZM9.19603 18.5978C8.74993 18.5978 8.36991 18.8771 8.36991 19.205C8.36991 19.537 8.74993 19.8122 9.19603 19.8122C9.64213 19.8122 10.0221 19.537 10.0221 19.205C10.0221 18.8771 9.64213 18.5978 9.19603 18.5978ZM9.19603 18.5978C8.74993 18.5978 8.36991 18.8771 8.36991 19.205C8.36991 19.537 8.74993 19.8122 9.19603 19.8122C9.64213 19.8122 10.0221 19.537 10.0221 19.205C10.0221 18.8771 9.64213 18.5978 9.19603 18.5978ZM7.57271 18.95L6.30463 18.2213V19.8122L7.57271 19.46C7.55472 19.3761 7.54503 19.2907 7.5438 19.205C7.54526 19.1193 7.55494 19.0339 7.57271 18.95ZM12.0668 16.3187L10.0593 18.0027C10.1856 18.0696 10.3023 18.1526 10.4063 18.2496L11.8024 17.4481C11.8413 17.4237 11.8849 17.4072 11.9305 17.3995C12.0498 17.377 12.1728 17.3806 12.2906 17.41C12.4084 17.4394 12.5182 17.4938 12.612 17.5696C12.7549 17.6838 12.8539 17.8423 12.8929 18.0189L13.2233 17.4522L12.0668 16.3187ZM14.0742 7.87427C14.0465 7.88608 14.0174 7.89425 13.9875 7.89856C13.9656 7.91015 13.9449 7.9237 13.9255 7.93904C13.7468 8.70614 13.6677 9.49232 13.6901 10.2789C13.7436 10.3484 13.8045 10.4122 13.8718 10.4691C13.971 10.291 14.1527 9.72427 14.1527 8.45721C14.1644 8.25978 14.1378 8.06197 14.0742 7.87427ZM13.7892 0.0532699C13.467 -0.136993 12.8103 0.215196 12.1122 0.591672C11.2572 1.05316 10.2865 1.57537 9.19603 1.57537C4.43761 1.57537 3.82628 3.19867 3.82628 4.61147C3.82443 4.79579 3.83824 4.97995 3.86759 5.16202C3.9472 5.74816 4.15274 6.31109 4.47065 6.81366L6.35007 4.46169C6.43656 4.34165 6.54707 4.24011 6.67487 4.16325C6.80267 4.08639 6.9451 4.03582 7.09347 4.01461C7.24185 3.99341 7.39308 4.00201 7.53796 4.03989C7.68283 4.07778 7.81833 4.14416 7.9362 4.235C8.29684 4.50634 8.7386 4.65377 9.19326 4.6545C9.64792 4.65523 10.0902 4.50923 10.4517 4.23904C10.5694 4.14735 10.705 4.08016 10.8502 4.04158C10.9953 4.00301 11.1469 3.99386 11.2958 4.01471C11.4446 4.03555 11.5876 4.08594 11.7159 4.1628C11.8442 4.23965 11.9552 4.34136 12.042 4.46169L13.814 6.68007L14.004 6.68412C14.3711 6.05251 14.5646 5.33835 14.5658 4.61147C14.5658 1.21509 14.1445 0.255677 13.7892 0.0532699ZM4.46652 7.94309C4.44203 7.92327 4.41576 7.90566 4.38804 7.89047C4.3643 7.88656 4.34085 7.88115 4.31782 7.87427C4.25381 8.06186 4.22717 8.25976 4.23934 8.45721C4.23934 9.72427 4.42109 10.291 4.52022 10.4691C4.58751 10.4122 4.64843 10.3484 4.70197 10.2789C4.7244 9.49366 4.64529 8.70882 4.46652 7.94309ZM11.3935 4.96366C11.3719 4.92888 11.3431 4.89886 11.3091 4.87551C11.275 4.85216 11.2364 4.83597 11.1957 4.82799C11.1549 4.82 11.1129 4.82038 11.0723 4.8291C11.0317 4.83782 10.9934 4.85469 10.9598 4.87865C10.4544 5.25833 9.83557 5.46445 9.19879 5.46518C8.56201 5.46591 7.94268 5.26122 7.4364 4.8827C7.40292 4.85794 7.36452 4.84031 7.32368 4.83094C7.28283 4.82157 7.24044 4.82066 7.19921 4.82829C7.15799 4.83591 7.11885 4.85189 7.0843 4.8752C7.04974 4.89851 7.02054 4.92864 6.99856 4.96366L5.15633 7.2711C5.16046 7.28729 5.16459 7.30753 5.16872 7.32777C5.17286 7.34702 5.17838 7.36596 5.18524 7.38445V7.39659C5.50784 8.56967 5.61139 9.79025 5.49091 10.9994C5.48264 11.0804 5.47851 11.1695 5.47851 11.2585C5.47851 12.0439 6.3418 13.1611 7.91142 14.4039C8.27427 14.6932 8.72755 14.8515 9.1953 14.8522C9.66304 14.853 10.1168 14.6961 10.4806 14.408C12.0503 13.1611 12.9135 12.0439 12.9135 11.2585C12.9135 11.1695 12.9094 11.0804 12.9012 10.9913C12.7861 9.82125 12.8797 8.64046 13.1779 7.50184C13.182 7.4897 13.1862 7.46541 13.1944 7.44112L13.2151 7.36825C13.2233 7.33587 13.2275 7.30349 13.2357 7.26705L11.3935 4.96366ZM8.78297 10.8861H9.60909C9.71863 10.8861 9.8237 10.9287 9.90116 11.0047C9.97862 11.0806 10.0221 11.1835 10.0221 11.2909C10.0221 11.3983 9.97862 11.5012 9.90116 11.5771C9.8237 11.6531 9.71863 11.6957 9.60909 11.6957H8.78297C8.67342 11.6957 8.56836 11.6531 8.49089 11.5771C8.41343 11.5012 8.36991 11.3983 8.36991 11.2909C8.36991 11.1835 8.41343 11.0806 8.49089 11.0047C8.56836 10.9287 8.67342 10.8861 8.78297 10.8861ZM7.5438 8.86202V9.26683C7.5438 9.3742 7.50028 9.47716 7.42282 9.55308C7.34535 9.629 7.24029 9.67165 7.13074 9.67165C7.02119 9.67165 6.91613 9.629 6.83867 9.55308C6.7612 9.47716 6.71768 9.3742 6.71768 9.26683V8.86202H6.30463C6.19508 8.86202 6.09001 8.81937 6.01255 8.74345C5.93509 8.66753 5.89157 8.56457 5.89157 8.45721C5.89157 8.34984 5.93509 8.24688 6.01255 8.17096C6.09001 8.09504 6.19508 8.05239 6.30463 8.05239H7.95686C8.06641 8.05239 8.17147 8.09504 8.24893 8.17096C8.3264 8.24688 8.36991 8.34984 8.36991 8.45721C8.36991 8.56457 8.3264 8.66753 8.24893 8.74345C8.17147 8.81937 8.06641 8.86202 7.95686 8.86202H7.5438ZM10.0221 13.315H8.36991C8.26036 13.315 8.1553 13.2723 8.07784 13.1964C8.00037 13.1205 7.95686 13.0175 7.95686 12.9102C7.95686 12.8028 8.00037 12.6998 8.07784 12.6239C8.1553 12.548 8.26036 12.5053 8.36991 12.5053H10.0221C10.1317 12.5053 10.2368 12.548 10.3142 12.6239C10.3917 12.6998 10.4352 12.8028 10.4352 12.9102C10.4352 13.0175 10.3917 13.1205 10.3142 13.1964C10.2368 13.2723 10.1317 13.315 10.0221 13.315ZM12.0874 8.86202H11.6744V9.26683C11.6744 9.3742 11.6309 9.47716 11.5534 9.55308C11.4759 9.629 11.3709 9.67165 11.2613 9.67165C11.1518 9.67165 11.0467 9.629 10.9692 9.55308C10.8918 9.47716 10.8483 9.3742 10.8483 9.26683V8.86202H10.4352C10.3257 8.86202 10.2206 8.81937 10.1431 8.74345C10.0657 8.66753 10.0221 8.56457 10.0221 8.45721C10.0221 8.34984 10.0657 8.24688 10.1431 8.17096C10.2206 8.09504 10.3257 8.05239 10.4352 8.05239H12.0874C12.197 8.05239 12.302 8.09504 12.3795 8.17096C12.457 8.24688 12.5005 8.34984 12.5005 8.45721C12.5005 8.56457 12.457 8.66753 12.3795 8.74345C12.302 8.81937 12.197 8.86202 12.0874 8.86202ZM6.32528 16.3187L5.16872 17.4522L5.49917 18.0189C5.54563 17.8131 5.67221 17.6333 5.85197 17.5176C6.03172 17.4019 6.25045 17.3595 6.46159 17.3995C6.50716 17.4072 6.55071 17.4237 6.58964 17.4481L7.98577 18.2496C8.08976 18.1526 8.20644 18.0696 8.33274 18.0027L6.32528 16.3187Z" fill="black"/>
</svg>
