<svg width="93" height="8" viewBox="0 0 93 8" fill="none" xmlns="http://www.w3.org/2000/svg">
<path d="M0.638342 3.8602C0.638342 5.70404 2.13685 7.19872 3.98529 7.19872C5.83372 7.19872 7.33224 5.70404 7.33224 3.8602C7.33224 2.01636 5.83372 0.521683 3.98529 0.521683C2.13685 0.521683 0.638342 2.01636 0.638342 3.8602ZM0.266479 3.8602C0.266479 1.81152 1.93143 0.150719 3.98529 0.150719C6.03914 0.150719 7.7041 1.81152 7.7041 3.8602C7.7041 5.90884 6.03914 7.56969 3.98529 7.56969C1.93143 7.56969 0.266479 5.90884 0.266479 3.8602Z" fill="black"/>
<path d="M10.6932 3.8602C10.6932 5.54362 12.0613 6.90849 13.749 6.90849C15.4368 6.90849 16.8049 5.54362 16.8049 3.8602C16.8049 2.17674 15.4368 0.811882 13.749 0.811882C12.0613 0.811882 10.6932 2.17674 10.6932 3.8602ZM10.3536 3.8602C10.3536 1.98968 11.8738 0.473251 13.749 0.473251C15.6243 0.473251 17.1445 1.98968 17.1445 3.8602C17.1445 5.73072 15.6243 7.24712 13.749 7.24712C11.8738 7.24712 10.3536 5.73072 10.3536 3.8602Z" fill="black"/>
<path d="M20.748 3.8602C20.748 5.3834 21.9858 6.61806 23.5128 6.61806C25.0398 6.61806 26.2776 5.3834 26.2776 3.8602C26.2776 2.33696 25.0398 1.10231 23.5128 1.10231C21.9858 1.10231 20.748 2.33696 20.748 3.8602ZM20.4407 3.8602C20.4407 2.1678 21.8162 0.795822 23.5128 0.795822C25.2095 0.795822 26.5849 2.1678 26.5849 3.8602C26.5849 5.5526 25.2095 6.92458 23.5128 6.92458C21.8162 6.92458 20.4407 5.5526 20.4407 3.8602Z" fill="black"/>
<path d="M30.8027 3.8602C30.8027 5.22302 31.9103 6.32786 33.2766 6.32786C34.6428 6.32786 35.7504 5.22302 35.7504 3.8602C35.7504 2.49738 34.6428 1.39255 33.2766 1.39255C31.9103 1.39255 30.8027 2.49738 30.8027 3.8602ZM30.5279 3.8602C30.5279 2.34593 31.7585 1.11839 33.2766 1.11839C34.7946 1.11839 36.0253 2.34593 36.0253 3.8602C36.0253 5.37446 34.7946 6.60201 33.2766 6.60201C31.7585 6.60201 30.5279 5.37446 30.5279 3.8602Z" fill="black"/>
<path d="M40.8575 3.8602C40.8575 5.0627 41.8348 6.03751 43.0403 6.03751C44.2458 6.03751 45.2231 5.0627 45.2231 3.8602C45.2231 2.6577 44.2458 1.68286 43.0403 1.68286C41.8348 1.68286 40.8575 2.6577 40.8575 3.8602ZM40.615 3.8602C40.615 2.52406 41.7008 1.44095 43.0403 1.44095C44.3798 1.44095 45.4656 2.52406 45.4656 3.8602C45.4656 5.1963 44.3798 6.27943 43.0403 6.27943C41.7008 6.27943 40.615 5.1963 40.615 3.8602Z" fill="black"/>
<path d="M50.9123 3.8602C50.9123 4.9023 51.7594 5.74718 52.8041 5.74718C53.8488 5.74718 54.6958 4.9023 54.6958 3.8602C54.6958 2.8181 53.8488 1.97322 52.8041 1.97322C51.7594 1.97322 50.9123 2.8181 50.9123 3.8602ZM50.7021 3.8602C50.7021 2.70218 51.6432 1.76352 52.8041 1.76352C53.965 1.76352 54.906 2.70218 54.906 3.8602C54.906 5.01818 53.965 5.95689 52.8041 5.95689C51.6432 5.95689 50.7021 5.01818 50.7021 3.8602Z" fill="black"/>
<path d="M60.9671 3.8602C60.9671 4.7421 61.6837 5.45695 62.5678 5.45695C63.4519 5.45695 64.1686 4.7421 64.1686 3.8602C64.1686 2.9783 63.4519 2.26346 62.5678 2.26346C61.6837 2.26346 60.9671 2.9783 60.9671 3.8602ZM60.7893 3.8602C60.7893 2.88034 61.5855 2.0861 62.5678 2.0861C63.5502 2.0861 64.3464 2.88034 64.3464 3.8602C64.3464 4.84006 63.5502 5.63431 62.5678 5.63431C61.5855 5.63431 60.7893 4.84006 60.7893 3.8602Z" fill="black"/>
<path d="M71.0219 3.8602C71.0219 4.58167 71.6083 5.16664 72.3316 5.16664C73.0549 5.16664 73.6413 4.58167 73.6413 3.8602C73.6413 3.13869 73.0549 2.55376 72.3316 2.55376C71.6083 2.55376 71.0219 3.13869 71.0219 3.8602ZM70.8764 3.8602C70.8764 3.05853 71.5279 2.40867 72.3316 2.40867C73.1353 2.40867 73.7868 3.05853 73.7868 3.8602C73.7868 4.66183 73.1353 5.31174 72.3316 5.31174C71.5279 5.31174 70.8764 4.66183 70.8764 3.8602Z" fill="black"/>
<path d="M81.0767 3.8602C81.0767 4.42139 81.5327 4.87628 82.0953 4.87628C82.6579 4.87628 83.114 4.42139 83.114 3.8602C83.114 3.29901 82.6579 2.84408 82.0953 2.84408C81.5327 2.84408 81.0767 3.29901 81.0767 3.8602ZM80.9635 3.8602C80.9635 3.23669 81.4703 2.7312 82.0953 2.7312C82.7204 2.7312 83.2272 3.23669 83.2272 3.8602C83.2272 4.48371 82.7204 4.98917 82.0953 4.98917C81.4703 4.98917 80.9635 4.48371 80.9635 3.8602Z" fill="black"/>
<path d="M91.1315 3.8602C91.1315 4.26095 91.4573 4.58598 91.8591 4.58598C92.2609 4.58598 92.5867 4.26095 92.5867 3.8602C92.5867 3.45941 92.2609 3.13443 91.8591 3.13443C91.4573 3.13443 91.1315 3.45941 91.1315 3.8602ZM91.0507 3.8602C91.0507 3.41482 91.4126 3.05378 91.8591 3.05378C92.3056 3.05378 92.6675 3.41482 92.6675 3.8602C92.6675 4.30558 92.3056 4.66663 91.8591 4.66663C91.4126 4.66663 91.0507 4.30558 91.0507 3.8602Z" fill="black"/>
</svg>
