<svg width="93" height="8" viewBox="0 0 93 8" fill="none" xmlns="http://www.w3.org/2000/svg">
<g id="Vector">
<path d="M0.371863 3.7188C0.371863 5.56728 1.87037 7.06572 3.71881 7.06572C5.56725 7.06572 7.06576 5.56728 7.06576 3.7188C7.06576 1.87033 5.56725 0.371902 3.71881 0.371902C1.87037 0.371902 0.371863 1.87033 0.371863 3.7188ZM0 3.7188C0 1.66498 1.66496 0 3.71881 0C5.77267 0 7.43762 1.66498 7.43762 3.7188C7.43762 5.77259 5.77267 7.43762 3.71881 7.43762C1.66496 7.43762 0 5.77259 0 3.7188Z" fill="black"/>
<path d="M10.4267 3.7188C10.4267 5.40645 11.7948 6.77475 13.4826 6.77475C15.1703 6.77475 16.5384 5.40645 16.5384 3.7188C16.5384 2.03112 15.1703 0.662834 13.4826 0.662834C11.7948 0.662834 10.4267 2.03112 10.4267 3.7188ZM10.0871 3.7188C10.0871 1.84359 11.6073 0.323349 13.4826 0.323349C15.3578 0.323349 16.878 1.84359 16.878 3.7188C16.878 5.59402 15.3578 7.11423 13.4826 7.11423C11.6073 7.11423 10.0871 5.59402 10.0871 3.7188Z" fill="black"/>
<path d="M20.4815 3.7188C20.4815 5.24584 21.7194 6.48359 23.2463 6.48359C24.7733 6.48359 26.0111 5.24584 26.0111 3.7188C26.0111 2.19173 24.7733 0.953987 23.2463 0.953987C21.7194 0.953987 20.4815 2.19173 20.4815 3.7188ZM20.1743 3.7188C20.1743 2.02216 21.5497 0.646729 23.2463 0.646729C24.943 0.646729 26.3184 2.02216 26.3184 3.7188C26.3184 5.41545 24.943 6.79089 23.2463 6.79089C21.5497 6.79089 20.1743 5.41545 20.1743 3.7188Z" fill="black"/>
<path d="M30.5362 3.7188C30.5362 5.08505 31.6438 6.19267 33.0101 6.19267C34.3763 6.19267 35.4839 5.08505 35.4839 3.7188C35.4839 2.35256 34.3763 1.24496 33.0101 1.24496C31.6438 1.24496 30.5362 2.35256 30.5362 3.7188ZM30.2614 3.7188C30.2614 2.20073 31.492 0.970116 33.0101 0.970116C34.5282 0.970116 35.7588 2.20073 35.7588 3.7188C35.7588 5.23687 34.5282 6.4675 33.0101 6.4675C31.492 6.4675 30.2614 5.23687 30.2614 3.7188Z" fill="black"/>
<path d="M40.5911 3.7188C40.5911 4.92432 41.5683 5.90159 42.7738 5.90159C43.9794 5.90159 44.9566 4.92432 44.9566 3.7188C44.9566 2.51328 43.9794 1.536 42.7738 1.536C41.5683 1.536 40.5911 2.51328 40.5911 3.7188ZM40.3485 3.7188C40.3485 2.3793 41.4344 1.29347 42.7738 1.29347C44.1133 1.29347 45.1992 2.3793 45.1992 3.7188C45.1992 5.05826 44.1133 6.14411 42.7738 6.14411C41.4344 6.14411 40.3485 5.05826 40.3485 3.7188Z" fill="black"/>
<path d="M50.6459 3.7188C50.6459 4.76353 51.4929 5.61053 52.5376 5.61053C53.5823 5.61053 54.4293 4.76353 54.4293 3.7188C54.4293 2.67408 53.5823 1.82708 52.5376 1.82708C51.4929 1.82708 50.6459 2.67408 50.6459 3.7188ZM50.4357 3.7188C50.4357 2.55787 51.3767 1.61685 52.5376 1.61685C53.6985 1.61685 54.6395 2.55787 54.6395 3.7188C54.6395 4.87969 53.6985 5.82076 52.5376 5.82076C51.3767 5.82076 50.4357 4.87969 50.4357 3.7188Z" fill="black"/>
<path d="M60.7006 3.7188C60.7006 4.60292 61.4173 5.31957 62.3014 5.31957C63.1855 5.31957 63.9021 4.60292 63.9021 3.7188C63.9021 2.83469 63.1855 2.11805 62.3014 2.11805C61.4173 2.11805 60.7006 2.83469 60.7006 3.7188ZM60.5228 3.7188C60.5228 2.73648 61.319 1.94025 62.3014 1.94025C63.2837 1.94025 64.0799 2.73648 64.0799 3.7188C64.0799 4.70113 63.2837 5.49738 62.3014 5.49738C61.319 5.49738 60.5228 4.70113 60.5228 3.7188Z" fill="black"/>
<path d="M70.7554 3.7188C70.7554 4.44208 71.3418 5.02853 72.0651 5.02853C72.7884 5.02853 73.3748 4.44208 73.3748 3.7188C73.3748 2.99548 72.7884 2.40909 72.0651 2.40909C71.3418 2.40909 70.7554 2.99548 70.7554 3.7188ZM70.6099 3.7188C70.6099 2.91512 71.2615 2.26363 72.0651 2.26363C72.8688 2.26363 73.5203 2.91512 73.5203 3.7188C73.5203 4.52245 72.8688 5.17399 72.0651 5.17399C71.2615 5.17399 70.6099 4.52245 70.6099 3.7188Z" fill="black"/>
<path d="M80.8102 3.7188C80.8102 4.2814 81.2663 4.73744 81.8289 4.73744C82.3915 4.73744 82.8475 4.2814 82.8475 3.7188C82.8475 3.15621 82.3915 2.70013 81.8289 2.70013C81.2663 2.70013 80.8102 3.15621 80.8102 3.7188ZM80.6971 3.7188C80.6971 3.09373 81.2038 2.58698 81.8289 2.58698C82.454 2.58698 82.9607 3.09373 82.9607 3.7188C82.9607 4.34388 82.454 4.8506 81.8289 4.8506C81.2038 4.8506 80.6971 4.34388 80.6971 3.7188Z" fill="black"/>
<path d="M90.865 3.7188C90.865 4.12056 91.1909 4.4464 91.5926 4.4464C91.9944 4.4464 92.3202 4.12056 92.3202 3.7188C92.3202 3.31701 91.9944 2.99121 91.5926 2.99121C91.1909 2.99121 90.865 3.31701 90.865 3.7188ZM90.7842 3.7188C90.7842 3.27231 91.1461 2.91035 91.5926 2.91035C92.0391 2.91035 92.4011 3.27231 92.4011 3.7188C92.4011 4.1653 92.0391 4.52725 91.5926 4.52725C91.1461 4.52725 90.7842 4.1653 90.7842 3.7188Z" fill="black"/>
<path d="M0.371863 3.7188C0.371863 5.56728 1.87037 7.06572 3.71881 7.06572C5.56725 7.06572 7.06576 5.56728 7.06576 3.7188C7.06576 1.87033 5.56725 0.371902 3.71881 0.371902C1.87037 0.371902 0.371863 1.87033 0.371863 3.7188Z" fill="black"/>
<path d="M10.4267 3.7188C10.4267 5.40645 11.7948 6.77475 13.4826 6.77475C15.1703 6.77475 16.5384 5.40645 16.5384 3.7188C16.5384 2.03112 15.1703 0.662834 13.4826 0.662834C11.7948 0.662834 10.4267 2.03112 10.4267 3.7188Z" fill="black"/>
<path d="M20.4815 3.7188C20.4815 5.24584 21.7194 6.48359 23.2463 6.48359C24.7733 6.48359 26.0111 5.24584 26.0111 3.7188C26.0111 2.19173 24.7733 0.953987 23.2463 0.953987C21.7194 0.953987 20.4815 2.19173 20.4815 3.7188Z" fill="black"/>
<path d="M40.5911 3.7188C40.5911 4.92432 41.5683 5.90159 42.7738 5.90159C43.9794 5.90159 44.9566 4.92432 44.9566 3.7188C44.9566 2.51328 43.9794 1.536 42.7738 1.536C41.5683 1.536 40.5911 2.51328 40.5911 3.7188Z" fill="black"/>
<path d="M30.5362 3.7188C30.5362 5.08505 31.6438 6.19267 33.0101 6.19267C34.3763 6.19267 35.4839 5.08505 35.4839 3.7188C35.4839 2.35256 34.3763 1.24496 33.0101 1.24496C31.6438 1.24496 30.5362 2.35256 30.5362 3.7188Z" fill="black"/>
<path d="M50.6459 3.7188C50.6459 4.76353 51.4929 5.61053 52.5376 5.61053C53.5823 5.61053 54.4293 4.76353 54.4293 3.7188C54.4293 2.67408 53.5823 1.82708 52.5376 1.82708C51.4929 1.82708 50.6459 2.67408 50.6459 3.7188Z" fill="black"/>
<path d="M60.7006 3.7188C60.7006 4.60292 61.4173 5.31957 62.3014 5.31957C63.1855 5.31957 63.9021 4.60292 63.9021 3.7188C63.9021 2.83469 63.1855 2.11805 62.3014 2.11805C61.4173 2.11805 60.7006 2.83469 60.7006 3.7188Z" fill="black"/>
<path d="M70.7554 3.7188C70.7554 4.44208 71.3418 5.02853 72.0651 5.02853C72.7884 5.02853 73.3748 4.44208 73.3748 3.7188C73.3748 2.99548 72.7884 2.40909 72.0651 2.40909C71.3418 2.40909 70.7554 2.99548 70.7554 3.7188Z" fill="black"/>
<path d="M80.8102 3.7188C80.8102 4.2814 81.2663 4.73744 81.8289 4.73744C82.3915 4.73744 82.8475 4.2814 82.8475 3.7188C82.8475 3.15621 82.3915 2.70013 81.8289 2.70013C81.2663 2.70013 80.8102 3.15621 80.8102 3.7188Z" fill="black"/>
<path d="M90.865 3.7188C90.865 4.12056 91.1909 4.4464 91.5926 4.4464C91.9944 4.4464 92.3202 4.12056 92.3202 3.7188C92.3202 3.31701 91.9944 2.99121 91.5926 2.99121C91.1909 2.99121 90.865 3.31701 90.865 3.7188Z" fill="black"/>
</g>
</svg>
