<svg width="48" height="48" viewBox="0 0 48 48" fill="none" xmlns="http://www.w3.org/2000/svg">
<path d="M33.1657 35.0529C33.1385 35.1309 33.0865 35.1982 33.0174 35.2451C32.9482 35.2921 32.8656 35.316 32.7816 35.3136H31.9431L32.4639 32.7669C32.5263 32.8877 32.5824 33.0114 32.632 33.1377L33.1769 34.8043C33.2058 34.8855 33.2018 34.9745 33.1657 35.0529ZM14.8346 35.0541C14.7983 34.9757 14.7941 34.8866 14.8227 34.8051L15.3613 33.1567C15.4126 33.0242 15.471 32.8944 15.536 32.7677L16.0569 35.3136H15.2184C15.1437 35.3143 15.0703 35.2948 15.0062 35.2573C14.9421 35.2198 14.8897 35.1658 14.8549 35.1011C14.8471 35.0859 14.8404 35.0702 14.8346 35.0541ZM20.4799 33.0224C20.5759 33.1344 20.7015 33.2184 20.843 33.2652L22.0371 35.3136H21.0193L20.4799 33.0224ZM21.7364 33.1657L22.8066 32.8673C23.1362 33.1522 23.5605 33.3094 24 33.3094C24.4394 33.3094 24.8637 33.1522 25.1933 32.8673L26.2635 33.1657L25.0111 35.3136H22.9888L21.7364 33.1657ZM27.157 33.2652C27.2402 33.2373 27.3184 33.1966 27.3887 33.1446C27.4368 33.1086 27.4809 33.0676 27.52 33.0224L26.9806 35.3136H25.9628L27.157 33.2652ZM25.805 27.7217C25.2946 28.1277 24.6573 28.3492 24 28.3492C23.3426 28.3492 22.7053 28.1277 22.1949 27.7217C21.8975 27.4829 21.6331 27.2562 21.3812 27.0254C21.3853 27.0659 21.3936 27.1064 21.3977 27.1428C21.4419 27.5002 21.4654 27.8597 21.4679 28.2196L24 30.349L26.532 28.2196C26.5346 27.8597 26.558 27.5002 26.6022 27.1428C26.6064 27.1024 26.6146 27.0659 26.6187 27.0254C26.3668 27.2562 26.1024 27.4829 25.805 27.7217ZM17.1143 31.106C16.4617 31.5715 16.3625 31.6525 16.3295 31.6848C16.2799 31.7334 16.2345 31.7901 16.1891 31.8387L16.8995 35.312H18.1056L17.1143 31.106ZM22.3766 31.6363L21.1086 30.9076V32.4985L22.3766 32.1463C22.3586 32.0624 22.349 31.977 22.3477 31.8913C22.3492 31.8056 22.3589 31.7202 22.3766 31.6363ZM22.3766 31.6363L21.1086 30.9076V32.4985L22.3766 32.1463C22.3586 32.0624 22.349 31.977 22.3477 31.8913C22.3492 31.8056 22.3589 31.7202 22.3766 31.6363ZM19.0515 30.4866C18.6497 30.5118 18.2534 30.5922 17.8743 30.7254L18.9524 35.312H20.1709L19.0557 30.5676C19.0502 30.5409 19.0488 30.5136 19.0515 30.4866ZM22.3766 31.6363L21.1086 30.9076V32.4985L22.3766 32.1463C22.3586 32.0624 22.349 31.977 22.3477 31.8913C22.3492 31.8056 22.3589 31.7202 22.3766 31.6363ZM22.3766 31.6363L21.1086 30.9076V32.4985L22.3766 32.1463C22.3586 32.0624 22.349 31.977 22.3477 31.8913C22.3492 31.8056 22.3589 31.7202 22.3766 31.6363ZM24 31.2841C23.5539 31.2841 23.1738 31.5634 23.1738 31.8913C23.1738 32.2232 23.5539 32.4985 24 32.4985C24.4461 32.4985 24.8261 32.2232 24.8261 31.8913C24.8261 31.5634 24.4461 31.2841 24 31.2841ZM28.9484 30.4866C28.9511 30.5136 28.9498 30.5409 28.9443 30.5676L27.829 35.312H29.0475L30.1256 30.7254C29.7465 30.5922 29.3503 30.5118 28.9484 30.4866ZM31.6704 31.6848C31.6374 31.6525 31.5383 31.5715 30.8856 31.106L29.8943 35.312H31.1004L31.8109 31.8387C31.7654 31.7901 31.72 31.7334 31.6704 31.6848ZM24 31.2841C23.5539 31.2841 23.1738 31.5634 23.1738 31.8913C23.1738 32.2232 23.5539 32.4985 24 32.4985C24.4461 32.4985 24.8261 32.2232 24.8261 31.8913C24.8261 31.5634 24.4461 31.2841 24 31.2841ZM24 31.2841C23.5539 31.2841 23.1738 31.5634 23.1738 31.8913C23.1738 32.2232 23.5539 32.4985 24 32.4985C24.4461 32.4985 24.8261 32.2232 24.8261 31.8913C24.8261 31.5634 24.4461 31.2841 24 31.2841ZM25.6233 31.6363C25.641 31.7202 25.6507 31.8056 25.6522 31.8913C25.651 31.977 25.6413 32.0624 25.6233 32.1463L26.8914 32.4985V30.9076L25.6233 31.6363ZM24 31.2841C23.5539 31.2841 23.1738 31.5634 23.1738 31.8913C23.1738 32.2232 23.5539 32.4985 24 32.4985C24.4461 32.4985 24.8261 32.2232 24.8261 31.8913C24.8261 31.5634 24.4461 31.2841 24 31.2841ZM24 31.2841C23.5539 31.2841 23.1738 31.5634 23.1738 31.8913C23.1738 32.2232 23.5539 32.4985 24 32.4985C24.4461 32.4985 24.8261 32.2232 24.8261 31.8913C24.8261 31.5634 24.4461 31.2841 24 31.2841ZM22.3766 31.6363L21.1086 30.9076V32.4985L22.3766 32.1463C22.3586 32.0624 22.349 31.977 22.3477 31.8913C22.3492 31.8056 22.3589 31.7202 22.3766 31.6363ZM26.8707 29.005L24.8633 30.689C24.9896 30.7559 25.1062 30.8389 25.2102 30.9359L26.6064 30.1344C26.6453 30.11 26.6888 30.0934 26.7344 30.0858C26.8538 30.0633 26.9767 30.0669 27.0945 30.0963C27.2123 30.1256 27.3221 30.1801 27.4159 30.2559C27.5588 30.3701 27.6578 30.5286 27.6968 30.7052L28.0273 30.1385L26.8707 29.005ZM28.8782 20.5606C28.8505 20.5724 28.8213 20.5805 28.7914 20.5849C28.7695 20.5964 28.7488 20.61 28.7295 20.6253C28.5507 21.3924 28.4716 22.1786 28.494 22.9652C28.5476 23.0347 28.6085 23.0985 28.6758 23.1554C28.7749 22.9773 28.9566 22.4106 28.9566 21.1435C28.9684 20.9461 28.9417 20.7483 28.8782 20.5606ZM28.5932 12.7396C28.271 12.5493 27.6142 12.9015 26.9161 13.278C26.0611 13.7395 25.0904 14.2617 24 14.2617C19.2415 14.2617 18.6302 15.885 18.6302 17.2978C18.6284 17.4821 18.6422 17.6662 18.6715 17.8483C18.7511 18.4345 18.9567 18.9974 19.2746 19.5L21.154 17.148C21.2405 17.0279 21.351 16.9264 21.4788 16.8495C21.6066 16.7727 21.749 16.7221 21.8974 16.7009C22.0458 16.6797 22.197 16.6883 22.3419 16.7262C22.4868 16.7641 22.6223 16.8305 22.7401 16.9213C23.1008 17.1926 23.5425 17.3401 23.9972 17.3408C24.4519 17.3415 24.8941 17.1955 25.2557 16.9253C25.3734 16.8336 25.509 16.7664 25.6541 16.7279C25.7992 16.6893 25.9509 16.6802 26.0997 16.701C26.2486 16.7218 26.3915 16.7722 26.5198 16.8491C26.6482 16.9259 26.7591 17.0277 26.8459 17.148L28.6179 19.3664L28.8079 19.3704C29.175 18.7388 29.3686 18.0246 29.3697 17.2978C29.3697 13.9014 28.9484 12.942 28.5932 12.7396ZM19.2705 20.6294C19.246 20.6096 19.2197 20.5919 19.192 20.5768C19.1682 20.5728 19.1448 20.5674 19.1218 20.5606C19.0577 20.7482 19.0311 20.9461 19.0433 21.1435C19.0433 22.4106 19.225 22.9773 19.3242 23.1554C19.3914 23.0985 19.4524 23.0347 19.5059 22.9652C19.5283 22.1799 19.4492 21.3951 19.2705 20.6294ZM26.1974 17.65C26.1758 17.6152 26.1471 17.5851 26.113 17.5618C26.079 17.5384 26.0403 17.5223 25.9996 17.5143C25.9588 17.5063 25.9168 17.5067 25.8762 17.5154C25.8356 17.5241 25.7973 17.541 25.7637 17.5649C25.2583 17.9446 24.6395 18.1507 24.0027 18.1515C23.3659 18.1522 22.7466 17.9475 22.2403 17.569C22.2069 17.5442 22.1685 17.5266 22.1276 17.5172C22.0868 17.5079 22.0444 17.507 22.0031 17.5146C21.9619 17.5222 21.9228 17.5382 21.8882 17.5615C21.8537 17.5848 21.8245 17.6149 21.8025 17.65L19.9603 19.9574C19.9644 19.9736 19.9685 19.9938 19.9727 20.0141C19.9768 20.0333 19.9823 20.0523 19.9892 20.0707V20.0829C20.3118 21.256 20.4153 22.4765 20.2948 23.6857C20.2866 23.7667 20.2824 23.8557 20.2824 23.9448C20.2824 24.7301 21.1457 25.8474 22.7154 27.0902C23.0782 27.3795 23.5315 27.5378 23.9992 27.5385C24.467 27.5392 24.9208 27.3824 25.2846 27.0943C26.8542 25.8474 27.7175 24.7301 27.7175 23.9448C27.7175 23.8557 27.7133 23.7667 27.7051 23.6776C27.59 22.5075 27.6837 21.3267 27.9818 20.1881C27.986 20.176 27.9901 20.1517 27.9984 20.1274L28.019 20.0545C28.0273 20.0222 28.0314 19.9898 28.0397 19.9533L26.1974 17.65ZM23.5869 23.5724H24.413C24.5226 23.5724 24.6276 23.615 24.7051 23.6909C24.7826 23.7669 24.8261 23.8698 24.8261 23.9772C24.8261 24.0846 24.7826 24.1875 24.7051 24.2634C24.6276 24.3394 24.5226 24.382 24.413 24.382H23.5869C23.4774 24.382 23.3723 24.3394 23.2948 24.2634C23.2174 24.1875 23.1738 24.0846 23.1738 23.9772C23.1738 23.8698 23.2174 23.7669 23.2948 23.6909C23.3723 23.615 23.4774 23.5724 23.5869 23.5724ZM22.3477 21.5483V21.9531C22.3477 22.0605 22.3042 22.1635 22.2268 22.2394C22.1493 22.3153 22.0442 22.3579 21.9347 22.3579C21.8251 22.3579 21.7201 22.3153 21.6426 22.2394C21.5651 22.1635 21.5216 22.0605 21.5216 21.9531V21.5483H21.1086C20.999 21.5483 20.8939 21.5057 20.8165 21.4297C20.739 21.3538 20.6955 21.2509 20.6955 21.1435C20.6955 21.0361 20.739 20.9332 20.8165 20.8572C20.8939 20.7813 20.999 20.7387 21.1086 20.7387H22.7608C22.8703 20.7387 22.9754 20.7813 23.0529 20.8572C23.1303 20.9332 23.1738 21.0361 23.1738 21.1435C23.1738 21.2509 23.1303 21.3538 23.0529 21.4297C22.9754 21.5057 22.8703 21.5483 22.7608 21.5483H22.3477ZM24.8261 26.0013H23.1738C23.0643 26.0013 22.9592 25.9586 22.8818 25.8827C22.8043 25.8068 22.7608 25.7038 22.7608 25.5964C22.7608 25.4891 22.8043 25.3861 22.8818 25.3102C22.9592 25.2343 23.0643 25.1916 23.1738 25.1916H24.8261C24.9356 25.1916 25.0407 25.2343 25.1182 25.3102C25.1956 25.3861 25.2391 25.4891 25.2391 25.5964C25.2391 25.7038 25.1956 25.8068 25.1182 25.8827C25.0407 25.9586 24.9356 26.0013 24.8261 26.0013ZM26.8914 21.5483H26.4783V21.9531C26.4783 22.0605 26.4348 22.1635 26.3573 22.2394C26.2799 22.3153 26.1748 22.3579 26.0652 22.3579C25.9557 22.3579 25.8506 22.3153 25.7732 22.2394C25.6957 22.1635 25.6522 22.0605 25.6522 21.9531V21.5483H25.2391C25.1296 21.5483 25.0245 21.5057 24.9471 21.4297C24.8696 21.3538 24.8261 21.2509 24.8261 21.1435C24.8261 21.0361 24.8696 20.9332 24.9471 20.8572C25.0245 20.7813 25.1296 20.7387 25.2391 20.7387H26.8914C27.0009 20.7387 27.106 20.7813 27.1834 20.8572C27.2609 20.9332 27.3044 21.0361 27.3044 21.1435C27.3044 21.2509 27.2609 21.3538 27.1834 21.4297C27.106 21.5057 27.0009 21.5483 26.8914 21.5483ZM21.1292 29.005L19.9727 30.1385L20.3031 30.7052C20.3496 30.4994 20.4761 30.3195 20.6559 30.2039C20.8357 30.0882 21.0544 30.0458 21.2655 30.0858C21.3111 30.0934 21.3546 30.11 21.3936 30.1344L22.7897 30.9359C22.8937 30.8389 23.0104 30.7559 23.1367 30.689L21.1292 29.005Z" fill="black"/>
<path d="M3.67016 17.4816L3.24283 18.7894L0.0895588 17.7996L0.497646 16.5506C0.602947 16.2285 0.752679 16.0195 0.947014 15.9233C1.1417 15.8261 1.37067 15.8187 1.63392 15.9014C1.75532 15.9394 1.85747 15.9902 1.94038 16.0533C2.02207 16.116 2.08382 16.188 2.12545 16.2691C2.16568 16.351 2.1823 16.441 2.17547 16.5391C2.21308 16.4779 2.26188 16.4215 2.32171 16.3697C2.38048 16.3176 2.45027 16.2777 2.53126 16.2499C2.61225 16.2221 2.70146 16.2081 2.79889 16.2077C2.89509 16.207 2.99987 16.2243 3.11322 16.26C3.32277 16.3258 3.48002 16.4141 3.58515 16.525C3.68923 16.6356 3.74643 16.7712 3.7571 16.9317C3.76707 17.0907 3.73803 17.274 3.67016 17.4816ZM2.15238 17.6529L2.8204 17.8625L3.00529 17.297C3.02541 17.2353 3.02943 17.1789 3.01701 17.1279C3.00582 17.0774 2.97923 17.0331 2.93725 16.9954C2.89422 16.9572 2.83492 16.9262 2.75935 16.9023C2.69061 16.8807 2.62834 16.8742 2.57254 16.8828C2.51674 16.8912 2.46899 16.9121 2.42893 16.9454C2.38783 16.9783 2.35721 17.0256 2.3371 17.0871L2.15238 17.6529ZM0.984447 17.2862L1.59579 17.4782L1.76861 16.9497C1.79205 16.8778 1.7812 16.8125 1.73608 16.7537C1.692 16.6954 1.62588 16.6524 1.53772 16.6246C1.4221 16.5883 1.33429 16.5867 1.27411 16.6198C1.21517 16.6533 1.17581 16.7004 1.15604 16.7611L0.984447 17.2862Z" fill="black"/>
<path d="M4.49788 15.4941L4.14314 16.1897L1.63182 13.8555L2.06213 13.0113L5.4748 13.5778L5.11762 14.2783L4.50313 14.1631L4.03312 15.0849L4.49788 15.4941ZM2.43663 13.728L3.49507 14.6258L3.80537 14.017L2.43663 13.728Z" fill="black"/>
<path d="M6.19355 12.5362L5.75537 13.159L3.02926 11.3172L3.81954 10.1938C3.89878 10.0814 3.98606 9.98726 4.08175 9.91149C4.17568 9.83606 4.28115 9.78583 4.39835 9.76046C4.51555 9.73509 4.64586 9.74177 4.78964 9.78017C4.93238 9.81806 5.09191 9.8964 5.26822 10.0154C5.38804 10.0963 5.48285 10.1762 5.55299 10.2552C5.62209 10.3334 5.67246 10.4103 5.70395 10.4859C5.73613 10.5607 5.75415 10.6335 5.758 10.7049C5.76185 10.7762 5.75992 10.8465 5.75205 10.9155L7.16085 11.1612L6.71551 11.7943L5.46448 11.5392C5.44734 11.5634 5.42775 11.5903 5.40571 11.6198C5.38262 11.6486 5.36111 11.6769 5.34134 11.705C5.32088 11.7341 5.30006 11.7636 5.27889 11.7938C5.25773 11.8238 5.23796 11.8521 5.21942 11.8781L6.19355 12.5362ZM4.03767 11.0796L4.71758 11.539L4.99098 11.1506C5.02176 11.1069 5.04275 11.0645 5.05395 11.0235C5.06689 10.9822 5.06812 10.9401 5.05745 10.8972C5.0452 10.8545 5.02159 10.8122 4.98695 10.77C4.95057 10.7283 4.89984 10.6853 4.83442 10.6413C4.76813 10.5965 4.70901 10.5651 4.65741 10.5473C4.60598 10.5312 4.56067 10.5271 4.52149 10.535C4.48074 10.5432 4.44295 10.5605 4.40815 10.5871C4.37404 10.6126 4.34168 10.6474 4.31089 10.6911L4.03767 11.0796Z" fill="black"/>
<path d="M8.48254 9.74931L7.53448 10.7606L5.0961 8.56526L6.00149 7.59943C6.235 7.35034 6.46048 7.22211 6.6779 7.21491C6.8962 7.20669 7.10715 7.29429 7.31076 7.47754C7.40469 7.56206 7.47571 7.65 7.52399 7.74137C7.57139 7.83206 7.59658 7.92274 7.59955 8.01343C7.60095 8.10429 7.57751 8.19274 7.52923 8.27914C7.58958 8.23903 7.65797 8.20783 7.73459 8.18554C7.81015 8.1624 7.89062 8.15486 7.97615 8.16291C8.06151 8.17097 8.14862 8.19497 8.23713 8.23457C8.32477 8.27349 8.4124 8.33229 8.50004 8.41131C8.66201 8.5572 8.76696 8.70206 8.81489 8.84606C8.86194 8.9892 8.856 9.13577 8.79687 9.28594C8.73775 9.4344 8.63297 9.58886 8.48254 9.74931ZM7.03141 9.28046L7.54812 9.74554L7.95796 9.30823C8.00274 9.26057 8.03038 9.21103 8.04087 9.15977C8.05224 9.1092 8.04717 9.05811 8.0253 9.00651C8.00257 8.95406 7.96198 8.9016 7.90374 8.84897C7.85056 8.80114 7.79686 8.7696 7.74263 8.75434C7.68841 8.73909 7.63593 8.7384 7.58556 8.75211C7.53413 8.76514 7.4862 8.79549 7.44142 8.84314L7.03141 9.28046ZM6.1283 8.46737L6.60111 8.89303L6.98418 8.48434C7.03631 8.4288 7.05433 8.36503 7.03858 8.2932C7.02354 8.22206 6.98209 8.15589 6.91369 8.09451C6.82431 8.01394 6.74524 7.9764 6.67668 7.98171C6.60881 7.98789 6.55301 8.01446 6.50893 8.06126L6.1283 8.46737Z" fill="black"/>
<path d="M10.3143 8.11749C10.2596 8.16171 10.1903 8.208 10.106 8.25617C10.0217 8.30606 9.92965 8.34017 9.8296 8.35851C9.72954 8.37686 9.62389 8.36606 9.51247 8.32629C9.40192 8.28583 9.29085 8.19926 9.17907 8.06674L8.0456 6.72171C7.94677 6.60446 7.88345 6.49149 7.85563 6.38263C7.82695 6.27274 7.82362 6.17246 7.84514 6.0816C7.86683 5.99074 7.90618 5.90606 7.96338 5.82771C8.01971 5.74851 8.08233 5.68097 8.15072 5.6256C8.33421 5.47697 8.49636 5.35114 8.63717 5.24794C8.77711 5.14389 8.90113 5.05337 9.0094 4.97623C9.11943 4.89943 9.21826 4.83086 9.30606 4.77051L9.7208 5.26234L8.78498 6.01989C8.72288 6.07011 8.6865 6.12326 8.67601 6.17931C8.66551 6.2352 8.6858 6.29366 8.73705 6.35451L8.97022 6.63103L9.96131 5.88377L10.3484 6.34303L9.41014 7.15303L9.63177 7.416C9.67392 7.46589 9.71433 7.49811 9.75298 7.51269C9.79339 7.52726 9.83275 7.53051 9.87123 7.52246C9.91059 7.51354 9.94645 7.49606 9.97881 7.46966L10.9312 6.69874L11.3435 7.18783C11.2517 7.28057 11.1474 7.38171 11.0309 7.49143C10.9153 7.60029 10.7952 7.70829 10.6703 7.8156C10.5455 7.9212 10.4269 8.02183 10.3143 8.11749Z" fill="black"/>
<path d="M12.4006 6.60583L11.72 7.0056L10.8824 3.71434L11.7084 3.22903L14.2754 5.50457L13.5902 5.90709L13.1351 5.48606L12.2332 6.01577L12.4006 6.60583ZM11.6311 4.0308L12.0313 5.34531L12.6267 4.99543L11.6311 4.0308Z" fill="black"/>
<path d="M15.4527 5.00469L14.7417 5.29903L13.4531 2.30983L14.7356 1.77891C14.864 1.72577 14.9894 1.69234 15.1113 1.6788C15.2318 1.66474 15.3485 1.67777 15.4611 1.71823C15.5738 1.75851 15.6801 1.83274 15.7804 1.94091C15.8801 2.04806 15.9715 2.19823 16.0548 2.39143C16.1115 2.52274 16.1477 2.64017 16.1636 2.74354C16.179 2.84589 16.1792 2.93726 16.1643 3.01766C16.1505 3.09754 16.1257 3.16869 16.0898 3.23074C16.0539 3.29297 16.0137 3.35109 15.9693 3.40543L17.0225 4.35463L16.2999 4.65377L15.3847 3.77983C15.3571 3.79131 15.3257 3.80366 15.2909 3.81669C15.2556 3.82869 15.222 3.84137 15.1898 3.85474C15.1566 3.86846 15.1228 3.88251 15.0886 3.89674C15.0543 3.91097 15.0221 3.92434 14.9922 3.93669L15.4527 5.00469ZM14.4335 2.64069L14.755 3.3864L15.1986 3.20263C15.2484 3.18206 15.2894 3.15737 15.3214 3.12874C15.355 3.1008 15.3791 3.06583 15.3936 3.024C15.4066 2.98149 15.4101 2.93349 15.4039 2.87966C15.3962 2.82531 15.3768 2.7624 15.3459 2.69074C15.3145 2.61806 15.2818 2.56046 15.2481 2.51829C15.2136 2.47766 15.1776 2.45023 15.1403 2.43634C15.1015 2.42177 15.06 2.41646 15.0161 2.42057C14.9733 2.42417 14.9269 2.43634 14.8771 2.45691L14.4335 2.64069Z" fill="black"/>
<path d="M18.3345 3.97217L17.5964 4.19314L16.6292 1.0896L17.3676 0.868629L18.3345 3.97217Z" fill="black"/>
<path d="M19.6312 3.71314L18.8498 3.84806L19.2683 0.480857L20.2167 0.317143L21.7839 3.34166L20.9972 3.47743L20.7257 2.92491L19.6902 3.10371L19.6312 3.71314ZM19.852 1.03886L19.7461 2.40669L20.4301 2.28857L19.852 1.03886Z" fill="black"/>
<path d="M25.4522 3.3252L24.49 3.28457L23.6253 0L24.4235 0.0337714L25.0107 2.48743L25.8127 0.0924L26.6018 0.125657L25.4522 3.3252Z" fill="black"/>
<path d="M27.3689 3.534L26.5893 3.38897L28.1972 0.3852L29.1433 0.561257L29.5163 3.9336L28.7314 3.78754L28.6772 3.17657L27.6443 2.9844L27.3689 3.534ZM28.5416 1.10949L27.9485 2.352L28.6306 2.47886L28.5416 1.10949Z" fill="black"/>
<path d="M30.7369 4.3332L30.0106 4.08771L31.09 1.02L31.6679 1.21526L32.2133 3.47657L32.8665 1.62034L33.5963 1.86686L32.5168 4.93457L31.9338 4.7376L31.3883 2.48177L30.7369 4.3332Z" fill="black"/>
<path d="M33.9443 5.68543C33.7626 5.59131 33.6332 5.47834 33.5559 5.34634C33.4798 5.21503 33.4444 5.06743 33.4498 4.90371C33.4553 4.73983 33.4925 4.56343 33.562 4.374C33.6309 4.1832 33.7215 3.98349 33.8336 3.7752C33.9548 3.55011 34.079 3.3552 34.206 3.19029C34.3341 3.02606 34.4716 2.90074 34.6187 2.81434C34.7665 2.72691 34.9319 2.68731 35.1151 2.69554C35.2979 2.70223 35.505 2.76549 35.7367 2.88549C35.8814 2.9604 36.0063 3.0324 36.1119 3.10149C36.2174 3.17074 36.314 3.24137 36.4014 3.31337C36.488 3.38486 36.5758 3.46029 36.665 3.53983L36.3862 4.05703C36.3316 4.01949 36.262 3.97337 36.1772 3.91886C36.0918 3.86537 35.9949 3.80657 35.8868 3.74263C35.7785 3.67851 35.6628 3.61474 35.5394 3.5508C35.381 3.46886 35.2482 3.43269 35.141 3.44246C35.0322 3.45274 34.9309 3.51429 34.8375 3.62709C34.743 3.73937 34.636 3.90651 34.5162 4.12851C34.4235 4.30046 34.3554 4.44446 34.312 4.56051C34.2674 4.67606 34.2459 4.77274 34.2473 4.85074C34.2482 4.92977 34.2711 4.9956 34.3162 5.0484C34.3601 5.10051 34.4215 5.14697 34.5002 5.1876C34.6022 5.2404 34.6998 5.28291 34.7925 5.31497C34.8849 5.34549 34.9594 5.36743 35.0161 5.38063L35.262 4.92429L34.8013 4.68583L35.0867 4.15594C35.1481 4.1784 35.219 4.20703 35.2994 4.242C35.3799 4.27697 35.4642 4.31469 35.5526 4.35514C35.6398 4.39509 35.7191 4.43331 35.7903 4.47017C35.8818 4.51749 35.9619 4.56034 36.031 4.59874C36.1006 4.63611 36.1627 4.67229 36.2172 4.70726L35.3194 6.3732L34.806 6.10749L34.8195 5.86663C34.7257 5.874 34.5977 5.86697 34.4352 5.84554C34.2737 5.82463 34.1102 5.77131 33.9443 5.68543Z" fill="black"/>
<path d="M36.9204 7.53086C36.7724 7.42389 36.643 7.3128 36.5325 7.19777C36.4216 7.08103 36.3413 6.95554 36.2914 6.82149C36.2416 6.68726 36.2323 6.54377 36.2636 6.39069C36.2951 6.23777 36.3778 6.07217 36.5122 5.89389L37.8363 4.13434L38.4574 4.58331L37.1354 6.34011C37.0768 6.41794 37.0472 6.49303 37.0464 6.56554C37.0448 6.63909 37.0688 6.71057 37.1181 6.78C37.1667 6.85029 37.2376 6.91903 37.3304 6.98606C37.4214 7.05189 37.5083 7.09714 37.5912 7.122C37.6745 7.1484 37.7511 7.14977 37.8214 7.12577C37.8919 7.10349 37.9565 7.0536 38.0149 6.97577L39.3369 5.21914L39.9581 5.66811L38.6339 7.42766C38.4998 7.60594 38.3633 7.7328 38.2245 7.80806C38.0847 7.88263 37.9414 7.91606 37.795 7.90834C37.6495 7.90131 37.5045 7.86377 37.3598 7.79571C37.2159 7.7268 37.0695 7.63851 36.9204 7.53086Z" fill="black"/>
<path d="M38.7781 9.04577L38.2189 8.49394L41.2787 6.9084L41.9572 7.578L40.3184 10.5657L39.7553 10.0102L40.0632 9.47623L39.3224 8.74509L38.7781 9.04577ZM41.1446 7.69646L39.9383 8.39229L40.4276 8.8752L41.1446 7.69646Z" fill="black"/>
<path d="M41.0951 11.5661L40.6333 10.9599L43.2861 9.01817L44.1192 10.1114C44.2027 10.2209 44.2656 10.3322 44.3082 10.4451C44.351 10.5564 44.3659 10.6706 44.3529 10.7875C44.34 10.9044 44.2919 11.0234 44.2086 11.1446C44.1264 11.2651 43.9996 11.388 43.8282 11.5135C43.7117 11.5989 43.6039 11.6614 43.5053 11.7014C43.4075 11.7405 43.3171 11.7626 43.234 11.7675C43.1514 11.7735 43.0751 11.7669 43.0048 11.7477C42.9347 11.7285 42.8673 11.7041 42.803 11.6748L42.1148 12.9043L41.6454 12.2883L42.2922 11.2082C42.2742 11.1845 42.2546 11.1578 42.2333 11.1279C42.213 11.0973 42.1923 11.0683 42.1713 11.0409C42.1498 11.0126 42.1278 10.9838 42.1056 10.9545C42.0832 10.9251 42.0624 10.8979 42.0429 10.8723L41.0951 11.5661ZM43.193 10.0305L42.5313 10.5147L42.8194 10.8929C42.8518 10.9354 42.8861 10.9685 42.9221 10.9922C42.9579 11.0175 42.9982 11.0321 43.0431 11.0359C43.0883 11.0381 43.1369 11.0299 43.1885 11.011C43.2404 10.9906 43.2982 10.9572 43.3618 10.9106C43.4264 10.8633 43.4755 10.8185 43.5093 10.7762C43.5413 10.7337 43.5598 10.6929 43.5647 10.6539C43.5698 10.6135 43.5651 10.5727 43.5506 10.5321C43.5368 10.4923 43.5137 10.451 43.4813 10.4085L43.193 10.0305Z" fill="black"/>
<path d="M43.0633 14.6086L42.3793 13.3757L45.2882 11.8257L45.9723 13.0586C46.0843 13.2605 46.1392 13.4458 46.1369 13.6145C46.1359 13.7827 46.0913 13.9406 46.0035 14.088C45.916 14.2339 45.7915 14.3693 45.6297 14.4945C45.4694 14.6201 45.2847 14.7386 45.0755 14.8502C44.7418 15.0279 44.4476 15.1365 44.1929 15.1755C43.9387 15.2157 43.7188 15.1881 43.5331 15.0926C43.3463 14.9976 43.1897 14.8363 43.0633 14.6086ZM45.0486 12.8145L43.3548 13.717L43.634 14.22C43.6921 14.3246 43.768 14.3913 43.8621 14.4204C43.9557 14.4483 44.0727 14.4423 44.2133 14.4022C44.354 14.3621 44.5193 14.2915 44.7094 14.1902C44.8901 14.094 45.0309 14.0061 45.132 13.9269C45.2347 13.848 45.305 13.775 45.343 13.7078C45.382 13.6401 45.3986 13.5749 45.3927 13.5123C45.3862 13.4487 45.3645 13.3838 45.3278 13.3176L45.0486 12.8145Z" fill="black"/>
<path d="M44.0202 16.6893L43.7547 15.9564L47.2122 15.8014L47.5345 16.691L44.7516 18.7078L44.4843 17.97L44.9951 17.6158L44.6433 16.6449L44.0202 16.6893ZM46.7477 16.4582L45.354 16.5833L45.5863 17.2245L46.7477 16.4582Z" fill="black"/>
<path d="M1.38449 32.1705L0.956985 30.8626L4.11026 29.8728L4.51852 31.1217C4.62382 31.4438 4.62592 31.6992 4.52464 31.8881C4.42389 32.0781 4.2418 32.2145 3.97854 32.2971C3.85715 32.3352 3.74398 32.3522 3.6392 32.3479C3.53547 32.3433 3.44259 32.3199 3.36055 32.2776C3.27939 32.2339 3.2124 32.1701 3.15975 32.0865C3.16534 32.1578 3.15922 32.2315 3.1412 32.3076C3.12424 32.3834 3.09118 32.4557 3.04167 32.5243C2.99217 32.593 2.92798 32.6553 2.84891 32.7111C2.77107 32.7665 2.67539 32.8119 2.56205 32.8474C2.35249 32.9133 2.17215 32.9309 2.02067 32.9006C1.87041 32.8697 1.74342 32.7921 1.6397 32.6674C1.53737 32.5437 1.45236 32.3779 1.38449 32.1705ZM2.51832 31.1667L1.8503 31.3766L2.03519 31.9421C2.0553 32.0038 2.08556 32.0518 2.1258 32.0863C2.16498 32.1211 2.21273 32.1418 2.26923 32.1489C2.32695 32.1555 2.3936 32.147 2.46916 32.1231C2.53791 32.1015 2.59248 32.0715 2.63289 32.0328C2.67329 31.9941 2.69988 31.95 2.71265 31.9001C2.72664 31.8499 2.7235 31.794 2.70321 31.7323L2.51832 31.1667ZM3.68625 30.8002L3.07491 30.9921L3.24756 31.5206C3.27099 31.5924 3.31857 31.6394 3.39011 31.6615C3.46061 31.6839 3.53985 31.6814 3.62818 31.6536C3.7438 31.6173 3.81622 31.5686 3.84543 31.5074C3.87359 31.4465 3.87762 31.3858 3.85785 31.3253L3.68625 30.8002Z" fill="black"/>
<path d="M2.35074 34.4918L1.99601 33.7961L5.40868 33.2295L5.83899 34.0738L3.32767 36.408L2.97066 35.7075L3.43367 35.2951L2.96366 34.3733L2.35074 34.4918ZM5.02928 33.9369L3.66141 34.2273L3.97172 34.836L5.02928 33.9369Z" fill="black"/>
<path d="M4.21748 37.7333L3.77931 37.1105L6.50526 35.2687L7.29554 36.3919C7.37478 36.5043 7.43338 36.6178 7.47151 36.7325C7.50999 36.8453 7.52049 36.9598 7.50317 37.0761C7.48568 37.1923 7.43303 37.3095 7.34504 37.4277C7.25828 37.5451 7.12674 37.6632 6.9506 37.7822C6.83078 37.8631 6.72093 37.9217 6.6207 37.9579C6.52152 37.9934 6.43039 38.0121 6.34695 38.0141C6.26422 38.017 6.1883 38.0076 6.11886 37.9857C6.04941 37.9639 5.98312 37.9371 5.91997 37.9054L5.18479 39.1085L4.73944 38.4754L5.42758 37.4201C5.41043 37.3959 5.39189 37.3683 5.37178 37.3377C5.35254 37.3063 5.33312 37.2765 5.31318 37.2483C5.29271 37.2192 5.2719 37.1897 5.25073 37.1597C5.22957 37.1297 5.2098 37.1014 5.19143 37.0752L4.21748 37.7333ZM6.37337 36.2767L5.69328 36.7361L5.96668 37.1246C5.99746 37.1683 6.03035 37.2026 6.06533 37.2276C6.10014 37.2542 6.13985 37.2703 6.18463 37.2758C6.22976 37.2797 6.27838 37.2732 6.33086 37.2564C6.38351 37.2379 6.44263 37.2067 6.50805 37.1625C6.57435 37.1177 6.62525 37.0747 6.66041 37.0335C6.69417 36.9922 6.71411 36.9521 6.72058 36.9135C6.72723 36.8733 6.72408 36.8325 6.71113 36.7911C6.69889 36.7509 6.67738 36.7089 6.64659 36.6651L6.37337 36.2767Z" fill="black"/>
<path d="M6.71498 40.7765L5.76692 39.7653L8.2053 37.5699L9.11068 38.5356C9.3442 38.7847 9.45545 39.0156 9.44443 39.2287C9.43428 39.4426 9.32741 39.6411 9.1238 39.8246C9.02987 39.9091 8.93454 39.971 8.83763 40.0104C8.7416 40.049 8.64714 40.0659 8.55461 40.0611C8.46208 40.0548 8.37409 40.0245 8.29048 39.9701C8.32599 40.0325 8.35205 40.1019 8.36832 40.1786C8.38546 40.2543 8.38634 40.3335 8.37077 40.4163C8.3552 40.4991 8.32354 40.5819 8.27579 40.6649C8.22891 40.7472 8.16157 40.8278 8.07376 40.9068C7.91178 41.0527 7.75558 41.1429 7.60515 41.1775C7.45559 41.2113 7.30709 41.1931 7.15945 41.1228C7.01357 41.0525 6.86541 40.9371 6.71498 40.7765ZM7.31443 39.3993L6.7979 39.8643L7.20773 40.3017C7.25251 40.3493 7.30044 40.3805 7.35187 40.3953C7.40224 40.4107 7.45454 40.41 7.50894 40.393C7.56422 40.3754 7.62107 40.3401 7.67931 40.2874C7.73249 40.2396 7.76905 40.1899 7.78916 40.1381C7.80928 40.0863 7.81453 40.0353 7.80473 39.985C7.79581 39.9338 7.76905 39.8842 7.72444 39.8366L7.31443 39.3993ZM8.21754 38.5862L7.74473 39.0118L8.12781 39.4205C8.17993 39.4761 8.24308 39.499 8.3176 39.4896C8.39106 39.481 8.46208 39.4461 8.53012 39.3847C8.61951 39.3041 8.66446 39.2302 8.66481 39.1625C8.66429 39.0958 8.64207 39.0389 8.59817 38.9921L8.21754 38.5862Z" fill="black"/>
<path d="M8.75122 42.6715C8.69647 42.6273 8.637 42.5691 8.57298 42.4973C8.50703 42.4257 8.45561 42.3434 8.41835 42.2506C8.38109 42.1579 8.37199 42.0542 8.39054 41.9393C8.41013 41.8253 8.4759 41.7021 8.58767 41.5694L9.72132 40.2243C9.82015 40.1071 9.92143 40.0248 10.0253 39.9777C10.1299 39.9293 10.2298 39.907 10.325 39.9106C10.4201 39.9142 10.5123 39.9362 10.6017 39.9765C10.6918 40.0157 10.771 40.0632 10.8396 40.1187C11.0231 40.2674 11.1798 40.3995 11.3099 40.5154C11.4406 40.6305 11.5548 40.7328 11.6523 40.8225C11.75 40.9138 11.8373 40.9959 11.9146 41.0691L11.4999 41.5611L10.5643 40.8036C10.5022 40.7534 10.4422 40.7283 10.3839 40.7287C10.3258 40.729 10.2713 40.7597 10.22 40.8206L9.98685 41.0973L10.9228 41.91L10.5357 42.3693L9.54693 41.6191L9.32531 41.8822C9.28315 41.9321 9.25849 41.9772 9.25132 42.0171C9.24432 42.0588 9.24852 42.0974 9.26374 42.1327C9.28 42.1689 9.30449 42.2001 9.33703 42.2263L10.2895 42.9974L9.877 43.4866C9.7668 43.4157 9.64576 43.3346 9.51387 43.243C9.38285 43.1523 9.25201 43.057 9.121 42.9571C8.99173 42.857 8.86842 42.7618 8.75122 42.6715Z" fill="black"/>
<path d="M11.1667 44.3463L10.4861 43.9466L13.053 41.671L13.879 42.1563L13.0415 45.4476L12.3561 45.0451L12.5204 44.4533L11.6187 43.9236L11.1667 44.3463ZM13.1211 42.4673L12.1268 43.433L12.7224 43.7827L13.1211 42.4673Z" fill="black"/>
<path d="M14.5185 46.0966L13.8074 45.8023L15.0961 42.8131L16.3786 43.344C16.507 43.3971 16.6188 43.4619 16.7137 43.5384C16.808 43.6133 16.8797 43.7043 16.9289 43.8117C16.9779 43.919 16.9978 44.0455 16.9884 44.1914C16.9794 44.3361 16.9334 44.5051 16.8502 44.6981C16.7935 44.8294 16.733 44.9367 16.6683 45.0201C16.6041 45.1022 16.5374 45.1661 16.4683 45.2115C16.4003 45.2575 16.3308 45.2895 16.2603 45.3079C16.1898 45.3261 16.1194 45.3384 16.0487 45.3449L16.0884 46.7467L15.3658 46.4474L15.3672 45.1951C15.3396 45.1836 15.3088 45.1702 15.2748 45.155C15.2414 45.1385 15.2087 45.1238 15.1767 45.1104C15.1435 45.0967 15.1097 45.0826 15.0753 45.0686C15.041 45.0543 15.0088 45.041 14.9791 45.0286L14.5185 46.0966ZM15.5377 43.7326L15.2162 44.4783L15.6598 44.6619C15.7097 44.6825 15.7562 44.6942 15.7994 44.6967C15.8433 44.7009 15.8857 44.6935 15.9264 44.6745C15.9666 44.6541 16.0041 44.6229 16.0392 44.5812C16.0735 44.5378 16.1062 44.4804 16.137 44.4087C16.1683 44.3361 16.1877 44.273 16.1949 44.2197C16.2007 44.167 16.1956 44.1228 16.1799 44.0868C16.1634 44.0493 16.1384 44.0165 16.1047 43.9886C16.0721 43.961 16.031 43.937 15.9812 43.9162L15.5377 43.7326Z" fill="black"/>
<path d="M17.6336 47.2119L16.8953 46.991L17.8624 43.8874L18.6006 44.1084L17.6336 47.2119Z" fill="black"/>
<path d="M19.2149 47.5378L18.4334 47.4029L20.0006 44.3786L20.9491 44.5423L21.3675 47.9095L20.5807 47.7735L20.5182 47.1634L19.4829 46.9846L19.2149 47.5378ZM20.3547 45.0982L19.7785 46.3483L20.4623 46.4664L20.3547 45.0982Z" fill="black"/>
<path d="M25.5554 47.9594L24.5933 48L23.4436 44.8005L24.2417 44.7669L25.042 47.1619L25.6309 44.7082L26.4202 44.6748L25.5554 47.9594Z" fill="black"/>
<path d="M27.8166 47.7113L27.037 47.8565L27.4099 44.484L28.356 44.3081L29.9639 47.3119L29.179 47.4579L28.9002 46.9089L27.8671 47.101L27.8166 47.7113ZM28.0011 45.0343L27.9138 46.4035L28.596 46.2765L28.0011 45.0343Z" fill="black"/>
<path d="M31.5193 46.825L30.793 47.0705L29.7137 44.0028L30.2917 43.8074L32.1434 45.2589L31.4902 43.4025L32.22 43.1558L33.2992 46.2237L32.7162 46.4206L30.8679 44.9738L31.5193 46.825Z" fill="black"/>
<path d="M35.0855 45.3665C34.9038 45.4606 34.7355 45.5018 34.5809 45.4898C34.4273 45.4773 34.283 45.4227 34.148 45.3262C34.0129 45.2295 33.8852 45.0998 33.7649 44.9369C33.6428 44.7735 33.5256 44.5877 33.4133 44.3793C33.2921 44.1542 33.1976 43.9438 33.1303 43.7482C33.064 43.5519 33.0358 43.3701 33.0461 43.2021C33.0558 43.0332 33.1156 42.8769 33.2258 42.7334C33.3344 42.5892 33.5046 42.4572 33.7364 42.337C33.881 42.2621 34.0122 42.2016 34.1299 42.1553C34.2477 42.109 34.3617 42.0706 34.4717 42.0403C34.5807 42.0105 34.6939 41.982 34.8111 41.9547L35.0899 42.4719C35.0274 42.4949 34.9494 42.5254 34.8555 42.5633C34.7623 42.6022 34.6582 42.6475 34.5433 42.6989C34.4283 42.7505 34.3091 42.8081 34.1857 42.8721C34.0273 42.954 33.922 43.0413 33.8698 43.1335C33.8172 43.2274 33.8119 43.344 33.8544 43.4834C33.8957 43.6233 33.9764 43.8041 34.0958 44.0259C34.1885 44.1979 34.2714 44.3342 34.3447 44.4348C34.417 44.5359 34.4864 44.6079 34.5529 44.6508C34.6201 44.6947 34.6885 44.7132 34.7582 44.7063C34.827 44.7002 34.9006 44.6767 34.9793 44.6359C35.0813 44.5831 35.1721 44.5281 35.2515 44.4711C35.3292 44.4135 35.3897 44.3655 35.4329 44.3271L35.187 43.8708L34.7262 44.1094L34.4406 43.5795C34.4941 43.5425 34.5581 43.5014 34.633 43.4559C34.7079 43.4105 34.7871 43.3635 34.8711 43.3149C34.9538 43.2667 35.0309 43.2242 35.1021 43.1873C35.1936 43.14 35.275 43.0992 35.3462 43.0649C35.4168 43.0296 35.4824 42.9998 35.5426 42.9753L36.4404 44.6412L35.9269 44.9071L35.7317 44.7603C35.6851 44.8404 35.607 44.9402 35.4973 45.0595C35.3887 45.1783 35.2513 45.2806 35.0855 45.3665Z" fill="black"/>
<path d="M38.3709 43.3308C38.2229 43.4378 38.0763 43.5261 37.9315 43.5957C37.7849 43.6649 37.6388 43.7031 37.4933 43.7102C37.3478 43.7172 37.205 43.6834 37.0653 43.6089C36.9255 43.5343 36.7884 43.4078 36.6544 43.2297L35.3302 41.4701L35.9514 41.021L37.2734 42.7778C37.332 42.8556 37.3964 42.9055 37.4669 42.9278C37.5381 42.9509 37.6149 42.9497 37.6971 42.9238C37.78 42.899 37.868 42.853 37.9608 42.786C38.0518 42.7202 38.1216 42.6523 38.1702 42.5818C38.2206 42.5117 38.2446 42.4402 38.2419 42.3675C38.2411 42.295 38.2113 42.2198 38.1529 42.1419L36.8309 40.3853L37.4522 39.9363L38.7763 41.6959C38.9105 41.8742 38.9937 42.0394 39.0261 42.1917C39.0576 42.3446 39.0478 42.4886 38.9969 42.6233C38.947 42.7575 38.8676 42.8822 38.7587 42.9975C38.649 43.1119 38.5197 43.223 38.3709 43.3308Z" fill="black"/>
<path d="M40.4811 41.5462L39.9219 42.0981L38.2829 39.1104L38.9616 38.4406L42.0213 40.0263L41.4584 40.5819L40.9116 40.2838L40.1706 41.015L40.4811 41.5462ZM39.088 39.2364L39.8063 40.4138L40.2957 39.9309L39.088 39.2364Z" fill="black"/>
<path d="M43.0181 38.7759L42.5562 39.3821L39.9033 37.4402L40.7365 36.347C40.8199 36.2374 40.9109 36.1467 41.0093 36.0746C41.1061 36.0027 41.2135 35.9563 41.3314 35.9354C41.4494 35.9145 41.5796 35.9258 41.7218 35.9697C41.863 36.0127 42.0193 36.097 42.1908 36.2225C42.3072 36.3079 42.3991 36.3912 42.4663 36.4726C42.5324 36.5534 42.5796 36.6321 42.6081 36.7089C42.6373 36.7846 42.6525 36.8583 42.6536 36.9297C42.6546 37.0011 42.6501 37.0713 42.6396 37.14L44.0379 37.4378L43.5684 38.0537L42.3282 37.7525C42.3102 37.7762 42.2896 37.8022 42.2663 37.8309C42.242 37.8586 42.2196 37.8864 42.1986 37.9137C42.1771 37.9419 42.1551 37.9707 42.1329 38.0001C42.1105 38.0294 42.0896 38.0566 42.0702 38.0822L43.0181 38.7759ZM40.92 37.2403L41.5819 37.7247L41.8699 37.3466C41.9023 37.3041 41.925 37.2626 41.9378 37.2219C41.9523 37.1811 41.9551 37.1391 41.9462 37.0958C41.9355 37.0527 41.9137 37.0095 41.8808 36.9662C41.8462 36.9231 41.797 36.8784 41.7333 36.8318C41.6688 36.7845 41.6111 36.751 41.56 36.7315C41.5093 36.7135 41.4641 36.7077 41.4246 36.714C41.3835 36.7207 41.345 36.7366 41.3093 36.762C41.2743 36.7863 41.2406 36.8198 41.2082 36.8621L40.92 37.2403Z" fill="black"/>
<path d="M45.1719 35.4494L44.488 36.6823L41.5791 35.1322L42.263 33.8995C42.3749 33.6975 42.5039 33.5517 42.6496 33.4617C42.7942 33.3711 42.9536 33.3219 43.1276 33.3141C43.3001 33.3067 43.4838 33.3355 43.679 33.4006C43.8737 33.4641 44.0755 33.5517 44.2847 33.6629C44.6185 33.8407 44.8714 34.0238 45.0435 34.2122C45.2162 34.3994 45.312 34.5953 45.3311 34.8C45.3514 35.0052 45.2982 35.2217 45.1719 35.4494ZM42.5562 34.7919L44.2499 35.6943L44.5289 35.1914C44.587 35.0868 44.6027 34.9879 44.5765 34.8948C44.5495 34.8027 44.4808 34.7097 44.3699 34.6157C44.2592 34.5218 44.1087 34.4242 43.9186 34.3229C43.7379 34.2267 43.5863 34.1585 43.4635 34.1186C43.3401 34.0769 43.2394 34.0587 43.161 34.0641C43.0818 34.0687 43.0171 34.0906 42.9667 34.1295C42.9158 34.1695 42.8719 34.2226 42.8352 34.2888L42.5562 34.7919Z" fill="black"/>
<path d="M46.2819 33.0324L46.0164 33.7653L43.2336 31.7484L43.5558 30.8589L47.0135 31.0138L46.746 31.7517L46.1217 31.7107L45.7698 32.6817L46.2819 33.0324ZM44.0166 31.5257L45.1787 32.2903L45.411 31.649L44.0166 31.5257Z" fill="black"/>
<path d="M0 24.4673C0 23.7765 0.571462 23.2166 1.27621 23.2164C1.98114 23.2164 2.55242 23.7765 2.55242 24.4673C2.55242 25.1582 1.98096 25.7181 1.27621 25.7181C0.571287 25.7181 0 25.158 0 24.4673Z" fill="black"/>
<path d="M45.4476 24.4673C45.4476 23.7765 46.019 23.2166 46.7238 23.2164C47.4287 23.2164 48 23.7765 48 24.4673C48 25.1582 47.4285 25.7181 46.7238 25.7181C46.0189 25.7181 45.4476 25.158 45.4476 24.4673Z" fill="black"/>
</svg>
